<?xml version="1.0" standalone="no"?>
<!DOCTYPE svg PUBLIC "-//W3C//DTD SVG 20010904//EN"
 "http://www.w3.org/TR/2001/REC-SVG-20010904/DTD/svg10.dtd">
<svg version="1.0" xmlns="http://www.w3.org/2000/svg"
 width="600.000000pt" height="657.000000pt" viewBox="0 0 600.000000 657.000000"
 preserveAspectRatio="xMidYMid meet">
<g transform="translate(0.000000,657.000000) scale(0.100000,-0.100000)"
fill="#000000" stroke="none">
<path d="M2717 6350 c-123 -12 -295 -47 -402 -82 -112 -37 -278 -117 -327
-158 l-38 -31 0 -123 0 -123 -60 -7 c-124 -14 -220 -61 -220 -108 0 -12 -9
-22 -22 -26 -13 -3 -80 -34 -150 -68 -69 -35 -175 -77 -234 -94 -107 -31 -176
-62 -223 -101 -22 -18 -23 -21 -9 -35 13 -13 19 -14 39 -3 17 9 169 31 169 24
0 0 -28 -30 -63 -65 -74 -76 -125 -170 -100 -184 10 -5 28 -1 53 13 21 11 91
39 155 62 136 46 181 68 249 117 41 30 60 37 110 40 35 2 91 -3 129 -12 101
-24 143 -21 174 10 23 24 25 29 18 89 l-6 63 363 5 c388 5 432 10 540 59 30
14 74 43 98 64 56 50 73 52 118 8 20 -20 63 -49 95 -65 108 -55 158 -61 555
-66 l363 -5 -6 -63 c-7 -60 -5 -65 18 -89 31 -31 67 -33 169 -10 41 9 97 15
132 12 52 -3 71 -10 112 -40 68 -49 113 -71 249 -117 64 -23 134 -51 155 -62
25 -14 43 -18 53 -13 25 14 -24 103 -98 179 l-63 65 57 0 c31 -1 74 -7 95 -15
71 -25 78 9 12 54 -52 36 -90 52 -221 90 -55 16 -147 54 -205 84 -58 30 -120
59 -137 65 -22 7 -33 17 -33 30 0 20 -31 52 -67 71 -27 14 -155 41 -194 41
l-29 0 0 129 c0 152 9 139 -149 220 -158 81 -304 127 -504 157 -119 18 -582
27 -720 14z m583 -36 c239 -22 421 -70 608 -160 154 -74 152 -72 152 -194 0
-55 -3 -100 -6 -100 -3 0 -18 8 -32 19 -51 36 -230 120 -308 145 -178 57 -356
84 -604 92 -305 11 -596 -27 -820 -107 -55 -20 -264 -122 -287 -141 -10 -8
-13 12 -13 95 0 123 -6 114 135 184 198 98 414 153 686 172 118 9 372 6 489
-5z m-35 -244 c173 -16 387 -60 495 -102 24 -10 24 -10 -23 -29 -26 -10 -71
-22 -100 -25 -51 -6 -52 -5 -63 24 -16 42 -53 63 -121 69 -58 4 -100 -4 -270
-57 l-71 -23 -23 22 c-31 29 -97 29 -133 0 l-28 -22 -115 37 c-134 44 -204 54
-259 36 -48 -15 -84 -47 -84 -73 0 -18 -5 -19 -53 -14 -57 7 -147 35 -147 46
0 8 173 57 290 81 184 37 484 50 705 30z m-534 -121 c41 -11 100 -28 132 -37
l57 -17 0 -61 0 -62 -122 40 c-110 36 -131 40 -196 36 -40 -3 -78 -10 -85 -17
-6 -6 -14 -11 -17 -11 -7 0 4 87 14 111 18 43 104 50 217 18z m790 -6 c14 -13
23 -38 26 -72 l5 -51 -36 15 c-68 28 -135 20 -316 -38 l-75 -24 2 60 1 61 64
19 c178 53 195 57 251 54 42 -2 63 -9 78 -24z m-1286 -3 c13 -21 83 -48 158
-61 70 -12 77 -15 77 -36 0 -52 28 -93 77 -115 46 -20 53 -21 173 -9 216 22
235 24 229 17 -3 -3 -41 -14 -85 -23 -114 -25 -412 -25 -549 1 -106 19 -280
78 -305 103 -13 13 -13 16 5 30 22 17 194 103 206 103 4 0 11 -5 14 -10z m835
-8 c31 -25 40 -115 16 -161 -15 -27 -19 -30 -38 -20 -14 8 -27 8 -44 1 -35
-17 -49 9 -49 90 0 61 3 72 24 89 29 24 62 24 91 1z m817 -7 c66 -29 163 -86
163 -96 0 -11 -93 -56 -160 -77 -36 -12 -105 -29 -155 -39 -166 -32 -556 -21
-625 18 -22 12 2 11 170 -7 170 -19 208 -15 257 29 29 27 35 40 36 75 1 37 4
42 24 42 49 0 163 32 195 55 18 13 34 24 35 24 1 1 28 -10 60 -24z m-1103
-132 l89 -29 -79 -12 c-43 -7 -114 -12 -156 -12 -66 0 -81 3 -104 23 -32 27
-26 43 19 57 48 14 131 5 231 -27z m722 21 c41 -20 42 -26 7 -54 -27 -21 -34
-22 -148 -16 -66 4 -136 9 -155 13 l-35 6 55 19 c153 51 218 59 276 32z m758
-50 c77 -26 86 -40 86 -139 0 -83 -5 -96 -27 -74 -20 20 -203 32 -558 35 -282
2 -376 6 -434 19 -87 18 -182 59 -208 88 -17 20 -17 20 2 13 82 -32 265 -50
405 -41 192 13 396 60 506 118 30 16 152 6 228 -19z m-2236 12 c56 -29 211
-74 312 -92 182 -32 483 -21 585 22 47 19 -7 -24 -67 -54 -111 -56 -184 -64
-537 -64 -315 1 -572 -15 -595 -38 -26 -26 -31 -8 -24 82 3 51 7 94 7 95 1 1
16 10 34 19 74 39 235 56 285 30z m1062 -56 c0 -5 -2 -10 -4 -10 -3 0 -8 5
-11 10 -3 6 -1 10 4 10 6 0 11 -4 11 -10z m-1391 -232 c20 -15 39 -18 117 -17
100 1 114 -3 114 -31 0 -33 -55 -39 -155 -15 -126 31 -179 20 -297 -59 -24
-16 -106 -52 -183 -79 -77 -27 -147 -56 -156 -63 -19 -17 -29 -18 -29 -3 0 5
5 7 10 4 6 -3 10 -1 10 5 0 20 83 111 145 159 l60 46 -30 6 c-17 4 -59 7 -94
8 -35 0 -62 3 -59 7 3 3 57 19 119 35 78 21 146 48 216 85 57 30 120 61 140
68 l38 13 6 -75 c4 -62 9 -78 28 -94z m2876 82 c57 -30 133 -60 208 -81 87
-24 117 -36 116 -48 0 -11 -2 -12 -6 -3 -5 13 -93 15 -147 3 l-29 -6 65 -55
c58 -50 138 -139 138 -154 0 -4 -9 -2 -20 4 -11 6 -73 29 -137 51 -134 46
-157 57 -233 111 -71 50 -132 58 -257 33 -117 -22 -147 -19 -151 18 l-3 27
103 0 c101 0 105 1 131 28 24 25 27 36 27 95 l0 67 53 -21 c28 -11 93 -42 142
-69z m-2653 -42 l3 -33 -97 0 c-157 0 -147 38 14 55 40 4 74 8 74 9 1 0 4 -14
6 -31z m2354 11 c45 -12 62 -24 49 -37 -4 -4 -51 -7 -106 -7 -78 0 -98 3 -94
13 3 8 5 20 5 28 0 18 81 19 146 3z m654 -99 c0 -5 -5 -10 -11 -10 -5 0 -7 5
-4 10 3 6 8 10 11 10 2 0 4 -4 4 -10z m-3807 -7 c-7 -2 -19 -2 -25 0 -7 3 -2
5 12 5 14 0 19 -2 13 -5z"/>
<path d="M2876 6278 c-2 -7 -9 -33 -15 -58 -7 -25 -15 -53 -17 -62 -4 -13 0
-18 15 -18 12 0 21 7 21 15 0 8 9 15 20 15 11 0 23 -7 26 -15 4 -8 13 -15 21
-15 18 0 14 28 -12 103 -13 34 -23 47 -36 47 -11 0 -21 -6 -23 -12z m34 -58
c0 -11 -4 -20 -10 -20 -5 0 -10 9 -10 20 0 11 5 20 10 20 6 0 10 -9 10 -20z"/>
<path d="M3083 6278 c-27 -34 -21 -110 10 -130 31 -20 87 6 87 40 0 17 -25 15
-40 -2 -26 -32 -61 15 -40 54 13 24 38 26 46 5 4 -8 12 -15 20 -15 17 0 18 32
2 48 -16 16 -73 15 -85 0z"/>
<path d="M3206 6219 c-3 -40 -5 -73 -4 -75 2 -1 27 -6 57 -10 49 -6 53 -5 49
12 -2 13 -13 20 -36 22 -19 2 -32 9 -32 17 0 10 9 12 35 8 31 -5 35 -3 35 16
0 17 -6 21 -30 21 -16 0 -30 5 -30 10 0 6 16 10 35 10 45 0 47 25 4 34 -74 14
-75 13 -83 -65z"/>
<path d="M2706 6258 c-25 -36 -16 -98 18 -120 32 -22 86 7 86 45 0 22 -13 21
-34 -2 -10 -11 -24 -17 -31 -15 -21 8 -28 55 -12 72 13 12 18 12 40 -3 32 -20
47 -3 21 26 -24 26 -69 25 -88 -3z"/>
<path d="M3351 6230 c-14 -65 -14 -97 0 -106 15 -9 29 14 29 51 1 28 2 27 19
-15 29 -70 47 -64 61 19 6 39 12 74 13 78 1 4 -6 9 -15 11 -13 2 -19 -6 -24
-35 l-7 -38 -18 43 c-25 57 -45 54 -58 -8z"/>
<path d="M2614 6217 c11 -86 19 -108 35 -98 23 14 3 145 -23 149 -17 4 -18 -1
-12 -51z"/>
<path d="M2477 6243 c-11 -3 -16 -11 -13 -21 2 -9 10 -43 17 -74 10 -46 16
-58 31 -58 16 0 18 5 12 34 -5 30 -3 34 13 32 10 -2 19 -13 21 -24 2 -14 11
-22 24 -22 17 0 19 4 13 28 -5 15 -11 45 -14 67 -6 39 -7 40 -46 42 -22 0 -48
-1 -58 -4z m73 -38 c0 -9 -9 -15 -25 -15 -24 0 -32 10 -18 23 12 13 43 7 43
-8z"/>
<path d="M3510 6237 c0 -8 9 -17 19 -20 19 -5 19 -8 6 -58 -14 -53 -8 -78 14
-65 6 4 11 15 11 24 0 9 5 33 10 54 8 28 14 35 29 31 21 -5 38 14 25 27 -5 4
-33 11 -61 15 -43 6 -53 4 -53 -8z"/>
<path d="M2368 6216 c-20 -6 -39 -14 -42 -17 -5 -5 30 -126 40 -138 2 -2 26 2
54 9 61 15 62 36 1 32 -50 -4 -59 22 -11 32 19 3 30 12 30 22 0 13 -7 15 -34
10 -19 -4 -37 -2 -40 3 -4 6 10 13 29 17 25 4 35 11 33 22 -4 20 -16 22 -60 8z"/>
<path d="M3642 6152 c-26 -81 -26 -82 -7 -82 9 0 20 11 25 25 10 27 20 31 37
14 9 -9 9 -16 0 -31 -10 -15 -9 -20 3 -28 19 -12 24 -6 44 57 26 82 21 92 -49
107 -31 7 -31 6 -53 -62z m77 19 c13 -8 8 -31 -7 -31 -17 1 -34 19 -28 29 9
13 16 14 35 2z"/>
<path d="M2233 6172 c-10 -6 -10 -17 -2 -46 14 -51 6 -55 -21 -12 -22 36 -35
42 -58 28 -9 -6 -6 -23 15 -73 33 -78 29 -73 49 -65 14 6 14 9 -3 39 -26 43
-35 70 -23 62 6 -3 10 -11 10 -16 0 -20 44 -69 62 -69 14 0 17 6 13 33 -5 31
-5 31 7 7 6 -14 13 -26 14 -28 0 -1 8 0 17 4 13 5 12 15 -13 72 -28 66 -43 80
-67 64z"/>
<path d="M3801 6097 c-44 -50 -50 -63 -36 -65 10 -2 21 1 25 7 10 17 40 2 51
-25 15 -41 26 -26 37 53 8 59 8 79 -1 85 -19 12 -19 12 -76 -55z m49 -12 c0
-8 -7 -15 -16 -15 -14 0 -14 3 -4 15 7 8 14 15 16 15 2 0 4 -7 4 -15z"/>
<path d="M3925 6044 c-20 -36 -35 -67 -33 -69 11 -11 82 -34 89 -29 16 10 9
24 -16 34 -31 12 -31 12 1 65 24 41 25 65 4 65 -4 0 -25 -30 -45 -66z"/>
<path d="M2048 6088 c-15 -12 -15 -19 0 -86 15 -70 33 -90 40 -45 4 25 31 38
46 23 14 -14 36 -13 36 3 0 7 -24 36 -53 65 -45 45 -55 50 -69 40z m47 -58 c3
-5 3 -15 -1 -21 -6 -11 -23 6 -24 24 0 10 18 9 25 -3z"/>
<path d="M3985 5719 c-4 -6 -5 -12 -2 -15 2 -3 7 2 10 11 7 17 1 20 -8 4z"/>
<path d="M2830 5560 c-202 -11 -285 -38 -340 -107 -21 -27 -28 -97 -10 -108
21 -13 9 -20 -37 -23 -145 -8 -429 -92 -622 -183 -82 -39 -137 -59 -161 -59
-65 0 -150 -78 -150 -137 0 -24 29 -83 40 -83 4 0 15 -6 26 -14 18 -14 17 -15
-19 -31 -21 -9 -95 -29 -165 -46 -307 -72 -442 -141 -547 -281 -26 -33 -45
-61 -43 -63 2 -1 48 12 103 30 55 18 102 32 103 30 2 -2 -1 -19 -7 -37 -10
-29 -19 -36 -75 -56 -96 -35 -130 -77 -190 -237 -27 -71 -70 -175 -96 -230
-61 -130 -63 -136 -50 -186 29 -108 165 -143 245 -63 22 22 26 30 25 49 -1 3
9 24 22 46 20 36 25 39 52 33 95 -21 186 -89 219 -164 46 -102 15 -245 -69
-319 -84 -74 -204 -84 -369 -30 -164 54 -287 40 -398 -45 -89 -68 -152 -203
-194 -414 -23 -117 -23 -356 0 -470 62 -310 222 -588 492 -856 142 -141 235
-212 550 -421 463 -308 587 -411 815 -680 70 -82 152 -173 182 -202 139 -130
299 -190 424 -157 73 19 109 18 185 -5 102 -30 113 -32 257 -32 117 0 150 4
225 26 98 28 142 31 207 12 59 -17 123 -13 201 13 121 40 221 125 404 340 146
172 209 237 331 340 68 58 246 184 504 355 371 247 533 385 704 600 93 117
133 178 194 300 63 127 94 214 123 345 72 337 -22 783 -193 909 -113 83 -231
96 -397 42 -217 -70 -363 -30 -430 119 -31 69 -29 180 5 248 36 72 114 126
209 146 27 6 32 3 47 -26 9 -18 21 -48 28 -66 26 -67 123 -102 190 -67 97 50
106 120 36 268 -47 98 -146 339 -146 355 0 5 -18 29 -40 54 -29 34 -56 51
-102 68 -75 27 -75 27 -83 63 -9 35 5 35 115 -2 47 -16 86 -28 88 -26 1 1 -22
34 -53 73 -99 127 -224 192 -504 262 -88 22 -176 47 -195 55 l-36 15 41 40
c38 36 41 43 36 76 -12 71 -85 134 -155 134 -17 0 -85 26 -152 60 -186 91
-472 176 -615 182 -48 2 -54 8 -30 28 44 36 -5 128 -89 165 -89 40 -391 60
-666 45z m483 -37 c-7 -2 -19 -2 -25 0 -7 3 -2 5 12 5 14 0 19 -2 13 -5z m-61
-48 c-17 -19 -34 -51 -38 -71 -14 -74 41 -170 112 -196 31 -11 46 -28 25 -28
-15 0 -21 -31 -10 -52 9 -18 4 -27 -37 -69 -30 -31 -63 -53 -86 -60 -41 -11
-48 -19 -57 -60 l-6 -29 -42 34 -42 33 110 109 c60 60 109 112 109 116 0 5
-25 8 -55 8 l-55 0 -54 -72 c-29 -40 -65 -83 -78 -95 l-24 -23 -41 43 c-22 23
-54 63 -71 88 -17 26 -39 49 -47 53 -23 8 -105 8 -105 -1 0 -4 48 -56 106
-114 59 -59 104 -112 100 -117 -3 -6 -24 -25 -47 -43 l-40 -31 7 26 c8 33 -8
53 -61 76 -22 10 -60 38 -83 63 -39 40 -43 47 -32 67 9 16 9 25 1 33 -18 18
-13 24 35 49 84 42 124 121 102 206 -6 23 -21 51 -34 61 -13 10 -24 22 -24 25
0 3 111 6 246 6 l246 0 -30 -35z m-482 9 c76 -46 81 -155 8 -220 -61 -56 -186
-88 -401 -103 -383 -27 -434 -30 -454 -25 -11 3 -24 1 -27 -5 -4 -6 -12 -11
-19 -11 -6 0 -1 7 11 16 13 9 30 13 39 10 8 -4 71 12 139 34 171 56 386 99
491 100 23 0 44 4 48 9 3 5 19 12 35 16 40 9 90 52 90 76 0 21 -42 69 -60 69
-17 0 -11 -25 10 -38 23 -14 26 -45 8 -59 -36 -29 -72 -30 -120 -5 -53 27 -59
46 -28 80 55 58 176 88 230 56z m699 -17 c25 -12 54 -35 65 -50 l21 -29 -28
-24 c-15 -13 -36 -24 -47 -24 -10 0 -20 -5 -22 -11 -5 -14 -67 10 -86 33 -15
19 -6 45 19 53 21 7 26 35 7 35 -21 0 -58 -43 -58 -66 0 -29 33 -60 79 -75 20
-6 41 -15 46 -19 6 -4 46 -10 90 -14 119 -10 315 -53 450 -98 123 -41 170 -66
105 -54 -19 3 -138 13 -265 21 -319 22 -407 36 -506 86 -114 57 -138 188 -45
249 38 25 108 20 175 -13z m-968 -50 c-10 -9 -11 -8 -5 6 3 10 9 15 12 12 3
-3 0 -11 -7 -18z m26 -99 c-3 -8 -6 -5 -6 6 -1 11 2 17 5 13 3 -3 4 -12 1 -19z
m1027 5 c-5 -5 -11 -11 -14 -14 -3 -4 -11 -1 -18 7 -11 12 -8 14 14 14 15 0
23 -3 18 -7z m-1047 -19 c-3 -3 -12 -4 -19 -1 -8 3 -5 6 6 6 11 1 17 -2 13 -5z
m401 -188 c64 -78 132 -145 207 -204 26 -20 42 -38 36 -40 -16 -5 -85 52 -224
187 -83 81 -114 117 -105 123 21 13 24 11 86 -66z m322 61 c0 -17 -178 -193
-187 -184 -4 4 11 26 33 50 23 23 56 62 75 87 18 25 38 48 44 52 16 12 35 9
35 -5z m-597 -30 c-4 -21 -10 -26 -22 -21 -9 3 -26 9 -38 11 -32 7 -29 23 5
23 15 0 34 4 42 10 19 12 19 10 13 -23z m835 16 c37 -6 42 -19 10 -26 -13 -2
-31 -8 -40 -12 -14 -5 -18 -2 -18 12 0 10 -6 25 -12 32 -11 12 -9 13 7 7 11
-4 35 -10 53 -13z m-778 -8 c0 -9 -7 -18 -15 -22 -14 -5 -14 -8 0 -29 16 -25
8 -33 -13 -12 -22 22 -8 78 20 78 4 0 8 -7 8 -15z m708 -21 c3 -20 -16 -46
-53 -74 -13 -10 -10 -3 8 18 28 35 34 52 17 52 -5 0 -10 7 -10 16 0 23 34 13
38 -12z m-1041 -26 c30 -28 29 -40 -3 -28 -36 14 -85 12 -167 -6 -87 -20 -100
-29 -69 -52 23 -18 22 -18 -30 -18 -54 -1 -198 -40 -198 -54 0 -4 19 -20 42
-36 l41 -29 -49 -7 c-27 -4 -59 -10 -71 -13 -20 -5 -21 -2 -16 29 7 46 -11 97
-47 131 l-30 29 32 14 c52 22 119 38 173 41 28 1 86 6 130 10 44 5 116 9 159
10 69 1 83 -2 103 -21z m243 -6 c46 -23 115 -80 107 -88 -2 -2 -33 6 -68 19
-93 35 -119 40 -119 24 0 -8 22 -19 55 -27 64 -15 56 -30 -16 -30 -54 0 -120
37 -163 94 l-29 38 94 -3 c73 -3 104 -9 139 -27z m1070 21 c-1 -15 -56 -72
-94 -97 -31 -21 -51 -26 -97 -26 -33 0 -59 4 -59 8 0 5 25 15 55 22 31 7 54
18 52 24 -6 16 -39 10 -114 -20 -35 -14 -67 -23 -71 -19 -10 10 56 64 113 91
40 19 66 24 133 24 45 0 82 -3 82 -7z m221 -3 c261 -19 297 -24 352 -47 20 -9
37 -17 37 -18 0 -2 -13 -17 -30 -35 -32 -34 -46 -84 -36 -131 6 -30 5 -30 -27
-23 -17 4 -50 10 -71 13 l-39 6 41 29 c23 16 42 32 42 36 0 14 -142 52 -198
53 -54 1 -54 1 -32 19 13 10 20 21 17 24 -11 11 -151 44 -188 44 -21 0 -49 -4
-63 -10 -32 -12 -33 -4 -4 27 25 26 21 26 199 13z m-1131 -114 c0 -6 -14 3
-30 21 -39 41 -39 55 0 18 17 -16 30 -34 30 -39z m-327 15 c31 -18 57 -37 57
-43 0 -5 -6 -8 -14 -5 -66 26 -177 38 -183 21 -2 -7 20 -14 57 -18 33 -4 60
-11 60 -16 0 -10 -75 -25 -105 -21 -34 5 -98 37 -134 66 l-34 29 39 12 c22 8
74 12 119 10 70 -2 88 -7 138 -35z m1436 26 l43 -13 -40 -32 c-44 -36 -94 -59
-132 -62 -34 -4 -110 11 -110 20 0 5 27 11 60 15 33 4 60 11 60 16 0 13 -78
11 -137 -5 -28 -8 -54 -11 -57 -8 -7 7 65 50 114 68 45 17 143 17 199 1z
m-2095 -36 c19 -20 30 -43 33 -73 7 -60 -10 -96 -52 -114 -38 -16 -45 -30 -17
-37 19 -4 7 -10 -83 -41 -27 -10 -66 -24 -86 -31 -40 -15 -299 -29 -299 -16 0
5 11 11 25 13 13 3 22 1 19 -4 -10 -16 191 27 257 55 39 16 99 64 99 79 0 6
14 26 30 45 34 39 39 82 12 106 -25 23 -36 9 -17 -20 14 -20 14 -26 1 -52 -25
-48 -100 -50 -125 -3 -6 11 -5 28 5 50 15 38 71 66 116 60 16 -3 31 -1 34 4 9
14 19 9 48 -21z m1534 9 c-7 -10 -14 -17 -17 -15 -4 4 18 35 25 35 2 0 -1 -9
-8 -20z m1016 12 c3 -5 18 -7 34 -4 42 6 97 -24 115 -61 19 -38 10 -59 -32
-76 -24 -10 -34 -10 -59 3 -37 19 -47 45 -31 80 15 32 4 46 -16 20 -34 -44
-14 -91 75 -185 38 -40 102 -64 246 -94 43 -9 81 -19 84 -21 7 -8 -199 6 -240
17 -37 9 -192 60 -199 66 -3 2 4 9 14 16 16 13 14 15 -23 30 -28 11 -43 24
-46 39 -15 69 -9 104 25 143 32 35 44 42 53 27z m-2101 -90 c67 -34 62 -46
-13 -32 -77 15 -120 13 -120 -5 0 -8 6 -12 13 -10 6 3 35 1 62 -3 l50 -8 -39
-17 c-21 -9 -46 -17 -56 -17 -38 0 -112 30 -151 61 l-42 33 29 9 c16 5 43 13
59 17 55 17 145 4 208 -28z m603 18 l29 -12 -30 -15 c-16 -9 -32 -17 -33 -19
-2 -1 -5 -46 -5 -99 l-2 -97 -70 -4 c-88 -6 -224 -36 -312 -69 -111 -42 -177
-81 -433 -257 -127 -87 -238 -151 -336 -192 -100 -42 -160 -52 -209 -36 -34
11 -42 21 -86 114 l-48 101 52 6 c117 14 291 101 548 272 246 164 376 226 585
282 170 45 276 53 350 25z m728 -21 c210 -51 339 -111 559 -258 71 -47 163
-108 205 -134 147 -91 329 -167 403 -167 37 0 37 0 24 -27 -88 -187 -93 -193
-157 -200 -85 -10 -280 78 -487 219 -307 209 -394 257 -546 301 -93 27 -267
53 -284 42 -7 -3 -11 33 -13 97 -3 96 -5 103 -26 114 -36 18 -31 28 18 41 62
17 161 8 304 -28z m498 25 c32 -9 58 -20 58 -23 0 -11 -37 -39 -79 -60 -60
-31 -109 -35 -156 -15 l-40 18 68 11 c38 5 65 13 61 18 -10 10 -81 8 -132 -3
-24 -6 -48 -8 -53 -4 -10 6 81 57 118 67 38 10 99 6 155 -9z m-1052 -12 c0
-14 -88 -82 -106 -82 -11 0 -3 10 22 28 21 16 45 36 53 45 14 18 31 23 31 9z
m95 -74 c5 -5 -27 -8 -70 -8 l-80 0 40 34 40 34 30 -26 c17 -15 34 -30 40 -34z
m145 13 c0 -8 -23 -21 -36 -21 -2 0 -4 11 -4 25 0 23 2 24 20 15 11 -6 20 -15
20 -19z m-390 -1 c0 -22 -7 -25 -29 -11 -16 10 -6 31 15 31 8 0 14 -9 14 -20z
m-806 -51 c55 -15 32 -33 -50 -39 -36 -3 -63 -9 -62 -15 2 -5 21 -9 43 -8 l40
3 -40 -25 c-31 -20 -48 -24 -75 -19 -35 6 -130 52 -130 63 0 8 106 49 140 55
29 5 79 -1 134 -15z m966 -3 c85 0 173 3 194 8 l39 7 -6 -93 c-7 -104 -16
-118 -85 -138 -48 -13 -206 -13 -254 0 -71 20 -80 35 -86 144 l-5 98 24 -13
c17 -8 73 -13 179 -13z m1195 -3 c22 -8 48 -17 58 -20 26 -8 21 -16 -31 -45
-70 -39 -111 -44 -155 -18 -20 12 -37 24 -37 27 0 3 18 2 40 -2 33 -6 40 -4
40 9 0 13 -12 16 -63 16 -38 0 -71 6 -82 14 -17 12 -13 15 45 29 69 16 120 13
185 -10z m242 20 c-14 -4 -16 -8 -6 -19 6 -8 9 -14 5 -14 -3 0 -9 -1 -13 -2
-3 -2 -8 7 -9 20 -3 17 1 22 19 21 17 -1 18 -2 4 -6z m-2807 -17 c0 -2 -9 -6
-20 -9 -11 -3 -18 -1 -14 4 5 9 34 13 34 5z m2783 -126 c26 -11 47 -24 47 -29
0 -4 -24 -20 -53 -34 -62 -32 -123 -35 -170 -9 l-32 17 53 3 c28 2 52 7 52 12
0 8 -36 14 -133 22 -35 4 -35 21 1 31 95 28 150 25 235 -13z m-2572 14 c57
-19 55 -34 -4 -34 -57 0 -117 -11 -117 -21 0 -4 24 -9 53 -11 l52 -3 -36 -21
c-31 -18 -44 -20 -88 -13 -29 4 -73 20 -98 35 l-46 27 49 22 c27 12 56 25 64
28 31 11 123 7 171 -9z m-591 -26 c0 -4 -9 -8 -21 -8 -11 0 -18 4 -15 8 3 5
12 9 21 9 8 0 15 -4 15 -9z m3567 -4 c-3 -3 -12 -4 -19 -1 -8 3 -5 6 6 6 11 1
17 -2 13 -5z m-3272 -26 c29 -13 33 -28 8 -28 -18 0 -163 -76 -163 -86 0 -3
31 -20 70 -38 l70 -34 -71 -26 c-38 -14 -76 -26 -82 -26 -7 0 -23 21 -37 48
-24 45 -27 47 -72 50 -59 4 -133 -27 -179 -74 l-33 -34 17 -47 c9 -25 16 -47
15 -48 -2 -1 -22 -9 -46 -18 -137 -54 -209 -152 -201 -275 4 -54 -1 -62 -44
-62 -12 -1 -39 -7 -60 -14 -21 -8 -37 -11 -35 -7 2 4 30 76 63 160 33 84 71
166 85 182 16 19 51 39 99 57 l74 27 24 69 c12 39 23 76 23 83 0 15 -66 18
-103 4 -20 -8 -27 -6 -31 5 -3 8 -1 12 4 9 5 -3 30 8 56 25 25 18 75 45 111
62 60 27 79 30 222 37 86 4 164 9 173 9 9 1 29 -3 43 -10z m1232 -16 c26 -58
125 -87 273 -80 116 6 181 31 200 78 15 35 18 35 153 15 182 -27 322 -89 532
-233 259 -178 313 -210 460 -273 80 -34 113 -42 162 -43 51 -1 62 -4 58 -16
-35 -126 -56 -389 -44 -571 7 -108 49 -344 66 -371 2 -5 -29 -8 -69 -8 l-73 0
-31 73 c-18 39 -44 115 -59 167 -35 127 -45 151 -68 177 -25 28 -21 33 27 37
25 2 47 12 67 32 27 27 29 34 21 69 -4 23 -14 41 -22 42 -8 1 -32 4 -53 8
l-39 6 7 42 c12 75 10 74 80 82 36 3 65 10 65 14 0 4 -25 19 -55 34 -60 29
-63 36 -44 116 5 24 7 46 4 49 -3 3 -27 -16 -54 -42 l-49 -48 -57 32 c-31 17
-59 29 -62 26 -3 -2 9 -31 26 -62 l31 -58 -52 -47 c-29 -26 -50 -50 -47 -53 3
-3 30 -2 59 4 29 5 58 10 65 10 11 0 72 -99 63 -103 -1 -1 -13 -8 -25 -14 -13
-7 -31 -13 -42 -13 -11 0 -29 -12 -40 -26 -20 -25 -20 -27 -3 -58 17 -30 21
-35 52 -55 12 -9 12 -12 -1 -28 -9 -10 -22 -40 -28 -68 -7 -27 -33 -88 -59
-135 -25 -47 -53 -112 -63 -145 l-16 -60 -124 -3 -125 -3 -37 101 c-20 55 -60
178 -88 272 -37 126 -58 180 -77 200 -14 15 -24 29 -21 32 17 14 49 24 67 19
14 -3 29 3 45 20 14 13 32 27 41 30 14 5 16 18 14 64 l-4 58 -44 5 c-25 3 -50
9 -56 13 -18 11 -167 -41 -186 -64 -22 -26 -23 -53 -3 -73 8 -8 15 -20 15 -26
0 -6 16 -20 35 -31 l34 -21 -39 -37 c-57 -54 -140 -244 -140 -321 0 -9 -16
-47 -35 -86 -19 -38 -35 -77 -35 -87 0 -11 -5 -17 -12 -14 -7 2 -27 -4 -43
-14 l-30 -18 0 72 c-1 73 -10 167 -21 211 -4 17 1 31 16 46 17 17 20 28 14 48
-7 29 -6 31 -29 -36 -6 -19 -14 -22 -39 -20 -35 3 -38 23 -3 23 12 0 25 5 29
10 16 21 7 35 -20 35 -15 0 -33 5 -40 12 -7 7 -13 8 -13 3 -1 -6 -2 -14 -4
-20 -1 -5 -3 -17 -3 -26 -2 -14 -9 -15 -49 -8 -53 10 -68 19 -32 19 51 0 67
45 17 46 -18 0 -41 4 -50 8 -15 7 -18 3 -18 -17 0 -29 -45 -84 -55 -67 -3 5
-17 10 -31 10 -13 0 -24 5 -24 10 0 6 13 10 29 10 17 0 31 6 35 16 10 26 7 29
-21 30 -16 0 -36 4 -45 8 -12 5 -18 4 -18 -4 0 -7 -20 -36 -43 -64 -24 -28
-72 -89 -106 -136 -35 -47 -64 -86 -66 -88 -1 -2 -21 30 -42 70 -36 65 -73
154 -128 303 -10 28 -33 65 -51 83 -30 30 -31 33 -14 42 10 6 32 10 49 10 39
0 61 9 61 25 0 7 11 20 24 29 29 18 42 52 27 70 -5 6 -8 22 -4 34 4 17 -1 24
-22 32 -14 5 -37 7 -50 4 -12 -3 -26 -1 -29 5 -4 6 -17 11 -29 11 -39 -1 -157
-47 -183 -71 -25 -23 -32 -63 -13 -74 5 -4 14 -18 19 -31 5 -13 25 -32 45 -41
l35 -17 -24 -25 c-38 -41 -62 -97 -101 -237 -47 -169 -146 -374 -180 -374 -15
0 -25 8 -29 23 -5 18 4 32 50 75 31 29 53 56 50 59 -5 6 -59 -7 -104 -25 -13
-5 -13 -1 3 20 22 28 139 176 169 214 45 55 0 30 -116 -64 -67 -55 -124 -99
-126 -98 -1 2 11 30 27 62 16 32 44 93 63 134 19 41 47 101 62 133 54 113 18
78 -105 -101 -68 -99 -127 -181 -130 -182 -3 0 4 48 16 108 37 178 49 252 42
258 -8 8 -5 14 -77 -193 l-57 -165 -12 113 c-7 63 -15 145 -18 182 -9 111 -27
76 -40 -79 -6 -76 -12 -155 -13 -174 -2 -46 6 -65 -126 309 -3 9 -8 11 -14 5
-5 -5 -5 -30 1 -59 14 -81 49 -297 49 -308 0 -5 -12 8 -27 30 -49 71 -98 132
-106 133 -12 0 1 -53 33 -137 16 -40 26 -73 23 -73 -2 0 -24 11 -47 25 l-43
25 10 67 c19 139 -2 487 -38 627 -8 27 -7 28 23 21 91 -20 305 80 602 280 279
188 415 251 595 274 122 15 129 14 142 -17z m2034 8 c71 -9 156 -43 226 -91
24 -17 48 -27 55 -23 6 4 8 3 4 -4 -4 -7 -31 -9 -78 -5 -67 6 -71 5 -64 -13 4
-10 17 -49 28 -85 l21 -66 67 -21 c98 -32 117 -56 193 -244 36 -89 64 -164 62
-167 -3 -2 -10 1 -17 7 -7 5 -31 13 -53 17 -74 13 -73 12 -68 55 7 51 -11 125
-43 173 -27 41 -107 97 -166 116 -43 14 -44 17 -21 66 16 34 16 36 -3 63 -32
42 -130 91 -185 92 -50 0 -67 -12 -89 -67 -7 -18 -18 -33 -26 -33 -7 0 -45 12
-84 26 l-72 27 71 34 c39 18 71 35 71 38 0 9 -145 85 -162 85 -25 0 -22 15 4
27 25 11 222 7 329 -7z m-3178 -45 c20 -8 48 -15 62 -15 14 0 25 -4 25 -10 0
-5 -18 -10 -39 -10 -46 0 -95 -16 -87 -29 3 -4 18 -7 33 -5 21 3 16 -2 -21
-20 -45 -22 -53 -23 -80 -12 -62 27 -86 39 -86 45 0 7 36 25 100 52 55 22 50
22 93 4z m2905 -27 c61 -35 59 -42 -19 -68 -52 -18 -53 -18 -97 3 l-45 22 34
5 c48 7 22 21 -51 27 -56 5 -76 23 -26 23 13 0 39 7 57 15 42 18 79 11 147
-27z m-3603 -88 c-8 -12 -55 -18 -55 -7 0 6 8 19 17 29 16 18 18 18 30 2 7 -9
10 -20 8 -24z m4202 10 c1 -10 -7 -17 -20 -17 -17 -2 -19 0 -7 7 13 8 12 10
-3 10 -10 0 -16 4 -12 9 9 15 41 8 42 -9z m-113 -5 c3 3 2 0 -3 -6 -10 -12
-31 -4 -31 13 0 7 4 7 13 -1 8 -6 17 -9 21 -6z m-3989 -5 c8 -13 -15 -13 -35
0 -12 8 -11 10 7 10 12 0 25 -4 28 -10z m4122 -22 c-3 -8 -6 -5 -6 6 -1 11 2
17 5 13 3 -3 4 -12 1 -19z m-3857 7 c0 -3 -14 -18 -31 -33 l-31 -28 41 -99
c31 -75 38 -101 29 -107 -7 -4 -15 -8 -18 -8 -3 1 -23 42 -45 93 l-41 92 -52
0 c-75 -1 -67 27 23 73 35 19 125 31 125 17z m3545 -15 c90 -43 102 -72 30
-74 l-50 -1 -40 -92 c-22 -51 -42 -92 -45 -93 -3 0 -12 4 -20 9 -12 8 -7 26
29 108 l42 98 -30 27 c-17 15 -31 30 -31 33 0 13 79 3 115 -15z m-3522 -40 c4
-17 0 -20 -24 -20 -31 0 -36 9 -17 28 18 18 35 15 41 -8z m3420 6 c25 -19 21
-26 -13 -26 -32 0 -33 1 -24 24 7 19 14 20 37 2z m-3553 -66 c0 -5 -14 -17
-30 -25 -28 -14 -31 -14 -37 1 -3 9 0 20 8 25 19 12 59 11 59 -1z m3717 -5 c1
-5 -1 -16 -6 -24 -8 -12 -13 -12 -35 3 -14 9 -26 21 -26 27 0 13 62 8 67 -6z
m-3676 -93 c62 -157 49 -181 -107 -201 -91 -12 -145 -29 -203 -65 l-41 -26 0
60 c0 105 43 167 146 214 33 15 84 40 114 56 30 16 57 29 60 29 3 0 17 -30 31
-67z m3627 50 c15 -10 64 -33 108 -51 90 -35 137 -75 165 -136 20 -43 25 -140
9 -150 -5 -3 -10 -2 -10 3 0 20 -139 73 -217 82 -164 18 -177 42 -116 203 15
37 28 67 31 67 2 0 16 -8 30 -18z m-3464 -282 c41 -223 46 -513 12 -693 -30
-161 -97 -361 -190 -569 -47 -106 -86 -297 -86 -428 0 -210 61 -474 152 -653
64 -128 188 -284 317 -400 264 -238 482 -352 846 -443 193 -48 301 -82 359
-111 45 -23 146 -107 146 -122 0 -20 -51 1 -87 36 -59 58 -144 94 -333 143
-292 76 -456 135 -649 236 -171 90 -260 152 -372 261 -114 111 -188 211 -264
357 -116 223 -169 441 -169 696 1 253 28 362 160 641 142 301 165 380 171 599
4 139 2 168 -21 281 -14 69 -39 166 -55 215 -33 100 -25 125 20 71 20 -24 31
-54 43 -117z m3326 129 c0 -6 -13 -54 -30 -107 -63 -206 -87 -389 -70 -545 20
-178 52 -276 178 -537 119 -247 153 -389 152 -635 0 -149 -5 -195 -34 -330
-57 -266 -192 -512 -385 -706 -120 -119 -225 -193 -406 -284 -191 -97 -289
-132 -680 -239 -156 -43 -242 -84 -286 -134 -23 -26 -41 -37 -61 -37 -15 0
-28 3 -28 7 0 3 21 25 48 48 76 66 187 114 377 160 401 99 605 194 850 395
250 205 394 407 481 672 49 150 67 271 68 453 1 115 -4 177 -17 240 -18 85
-30 115 -106 288 -55 125 -114 306 -143 438 -20 97 -23 136 -23 344 0 206 3
249 23 349 15 76 31 124 45 142 22 28 47 38 47 18z m-3389 -174 c63 -227 74
-458 30 -627 -24 -93 -143 -378 -149 -358 -9 28 -35 50 -60 50 -23 0 -20 4 21
31 151 100 231 360 183 597 -22 107 -68 235 -110 305 l-34 55 24 6 c13 4 31
17 41 30 10 13 19 23 21 21 2 -1 17 -51 33 -110z m3466 54 c9 -3 -3 -36 -36
-101 -142 -284 -134 -603 21 -789 27 -33 65 -68 86 -78 35 -19 35 -20 11 -21
-26 0 -52 -22 -61 -50 -11 -35 -143 300 -163 414 -33 189 -11 414 61 637 l15
46 27 -27 c15 -15 33 -29 39 -31z m-431 -16 c-20 -73 -19 -79 24 -98 48 -22
51 -35 8 -35 -46 0 -57 -10 -67 -61 l-8 -44 -19 43 -19 44 -55 -5 -55 -5 41
35 41 35 -24 44 -25 45 46 -23 46 -22 33 32 c36 37 40 38 33 15z m-3134 -69
c50 -90 96 -234 107 -332 35 -320 -89 -526 -374 -618 -65 -21 -109 -28 -230
-33 -177 -8 -218 -23 -264 -97 -80 -126 -73 -476 16 -759 77 -246 238 -511
426 -702 45 -46 78 -83 75 -83 -4 0 -47 33 -95 73 -310 258 -501 548 -590 896
-24 95 -27 123 -27 281 0 196 16 279 76 392 36 67 78 102 153 129 66 23 98 24
195 3 123 -26 290 -5 380 49 138 81 200 187 200 342 0 206 -128 391 -320 463
-23 8 -21 10 35 32 53 20 162 40 190 35 5 -1 26 -33 47 -71z m3775 44 c68 -21
85 -35 56 -44 -91 -28 -173 -94 -235 -188 -98 -151 -106 -351 -19 -488 86
-135 288 -210 483 -177 265 44 367 -21 440 -277 30 -106 32 -345 5 -474 -66
-307 -224 -587 -464 -822 -102 -100 -223 -201 -232 -193 -3 3 9 18 28 32 54
43 178 191 253 302 232 347 330 734 277 1090 -11 73 -26 105 -65 145 -53 53
-78 60 -239 67 -170 7 -232 22 -347 81 -165 85 -246 211 -264 412 -14 157 42
381 132 527 22 35 24 36 76 32 29 -3 81 -14 115 -25z m-2542 -28 c-6 -20 9
-28 20 -10 3 6 21 10 40 10 28 0 32 -3 28 -20 -3 -11 0 -27 7 -35 18 -22 -4
-45 -43 -45 -24 0 -28 -3 -19 -12 26 -26 14 -41 -29 -35 -29 4 -46 1 -56 -9
-8 -8 -19 -12 -24 -9 -5 4 -9 -1 -9 -9 0 -9 -2 -16 -5 -16 -11 0 -80 53 -78
60 1 4 -7 16 -17 25 -11 10 -20 24 -20 31 0 16 48 54 69 54 9 0 34 9 56 20 22
11 50 20 63 20 19 0 22 -4 17 -20z m-1615 -40 c0 -26 18 -26 45 0 21 19 24 20
65 5 109 -39 193 -115 247 -227 105 -213 45 -446 -138 -537 -89 -44 -154 -55
-294 -46 -224 14 -254 12 -313 -18 -72 -38 -116 -88 -151 -171 -85 -206 -83
-495 5 -762 29 -89 127 -290 175 -362 178 -261 332 -402 688 -632 426 -275
647 -456 759 -622 119 -176 243 -302 350 -355 60 -30 86 -37 152 -41 80 -5
150 3 150 16 0 5 -49 8 -108 8 -106 -1 -110 0 -186 37 -99 49 -195 144 -307
303 -117 165 -267 310 -451 434 -70 47 -101 83 -45 50 18 -10 56 -25 85 -35
96 -31 228 -151 459 -420 121 -140 154 -172 242 -232 66 -44 191 -85 269 -87
56 -1 66 2 83 23 38 47 14 141 -36 141 -22 0 -68 -48 -59 -62 5 -8 13 -4 25
10 19 25 39 28 57 10 19 -19 14 -57 -12 -83 -31 -31 -80 -25 -113 12 -45 48
-16 140 52 169 44 18 65 18 113 -1 55 -22 72 -58 72 -147 -1 -144 -63 -213
-207 -225 -105 -9 -232 52 -349 167 -37 36 -112 119 -167 185 -218 259 -338
360 -789 661 -314 210 -477 335 -600 460 -192 196 -332 415 -408 640 -33 94
-70 304 -70 392 0 136 64 419 115 508 56 97 171 164 282 164 35 0 91 -11 149
-30 52 -16 124 -33 161 -36 125 -12 247 38 308 126 116 167 69 389 -103 483
-58 32 -171 60 -187 47 -6 -5 -44 -10 -85 -12 -50 -2 -75 -7 -78 -16 -3 -10 4
-12 30 -7 26 5 40 2 58 -13 22 -18 23 -23 15 -58 -13 -52 -67 -81 -118 -65
-65 22 -76 84 -31 167 34 63 75 86 187 103 4 0 7 -8 7 -19z m4312 -20 c3 0 8
9 11 19 4 17 10 18 53 10 87 -16 118 -35 147 -93 33 -65 34 -107 5 -140 -31
-34 -66 -40 -108 -19 -35 18 -64 72 -53 99 8 22 63 39 84 26 11 -7 20 -8 24
-2 13 21 -9 30 -79 30 -39 0 -76 4 -82 10 -6 6 -32 4 -72 -5 -178 -42 -276
-153 -277 -315 0 -90 15 -142 58 -206 88 -132 252 -164 469 -94 111 36 184 39
262 10 59 -23 133 -82 165 -133 59 -97 111 -339 111 -521 0 -522 -319 -1001
-930 -1396 -394 -256 -638 -437 -766 -571 -28 -30 -103 -115 -166 -189 -213
-251 -332 -337 -476 -348 -49 -3 -78 0 -103 11 -19 8 -44 18 -57 22 -54 16
-102 145 -88 237 13 86 87 132 175 108 102 -27 122 -167 28 -197 -28 -10 -43
-10 -62 -1 -41 18 -48 80 -12 102 15 9 22 7 38 -13 14 -17 23 -21 31 -13 13
13 -32 62 -57 62 -21 0 -65 -45 -65 -66 0 -32 32 -82 59 -94 34 -13 135 1 214
30 119 45 206 119 392 334 209 243 303 325 439 380 86 36 128 43 68 12 -42
-22 -212 -155 -308 -242 -44 -41 -107 -110 -140 -155 -169 -235 -253 -323
-354 -374 -65 -33 -153 -49 -232 -41 -41 4 -68 2 -68 -3 0 -16 67 -24 150 -18
166 11 298 112 476 364 141 201 291 327 719 610 352 233 361 239 505 383 193
192 310 367 399 595 67 172 86 274 86 470 0 147 -3 180 -23 248 -43 151 -95
227 -187 275 -56 29 -90 31 -326 17 -105 -6 -136 -4 -185 10 -184 53 -284 179
-284 358 0 201 129 389 303 442 38 12 44 11 63 -6 11 -10 23 -19 26 -19z m202
25 c3 -8 1 -15 -4 -15 -6 0 -10 7 -10 15 0 8 2 15 4 15 2 0 6 -7 10 -15z
m-1684 -15 c0 -21 15 -27 25 -10 3 6 18 10 33 10 25 0 27 -3 27 -43 0 -39 -2
-42 -28 -45 -23 -3 -27 -7 -21 -24 6 -19 3 -20 -35 -16 -27 2 -42 -1 -45 -9
-3 -7 -12 -13 -21 -13 -8 0 -15 -4 -15 -10 0 -16 -61 26 -76 52 -27 47 -28 51
-5 70 13 10 31 18 40 18 10 0 35 9 57 20 50 25 64 25 64 0z m-2801 -116 c-14
-13 -16 -13 -16 0 0 8 4 13 9 10 4 -3 8 0 8 7 0 7 3 9 7 5 4 -3 0 -13 -8 -22z
m-39 6 c0 -5 -4 -10 -10 -10 -5 0 -10 5 -10 10 0 6 5 10 10 10 6 0 10 -4 10
-10z m4370 0 c0 -5 -4 -10 -9 -10 -6 0 -13 5 -16 10 -3 6 1 10 9 10 9 0 16 -4
16 -10z m-29 -27 c13 -17 13 -17 -6 -3 -11 8 -22 16 -24 17 -2 2 0 3 6 3 6 0
17 -8 24 -17z m-2768 -67 c17 -18 25 -46 34 -113 7 -49 19 -109 28 -133 17
-48 14 -60 -10 -36 -28 28 -83 18 -56 -9 16 -17 61 -160 61 -194 0 -17 9 -49
20 -71 32 -63 21 -92 -21 -54 -19 17 -49 13 -49 -6 0 -6 19 -31 41 -55 45 -49
42 -56 -9 -25 -18 11 -35 20 -37 20 -15 0 -1 -34 25 -63 17 -19 30 -37 30 -41
0 -3 -16 -6 -35 -6 -32 0 -35 -3 -35 -28 0 -15 -6 -34 -12 -41 -11 -10 -9 -14
7 -23 11 -7 34 -25 50 -42 17 -16 45 -35 63 -41 39 -14 43 -29 7 -33 -31 -4
-102 36 -162 91 -33 31 -47 37 -55 29 -7 -7 -23 -12 -36 -12 -23 0 -24 -2 -20
-51 l5 -50 -42 41 -41 41 -19 -21 c-19 -21 -19 -22 9 -72 l29 -51 -23 -19
c-30 -24 -56 -23 -84 5 -23 23 -24 23 -46 5 -12 -10 -36 -18 -54 -19 -27 0
-34 -6 -57 -51 -25 -51 -27 -52 -75 -55 -27 -1 -68 -2 -91 -2 -43 0 -74 -11
-105 -39 -10 -8 -33 -16 -52 -17 -19 -1 -43 -8 -52 -16 -9 -7 -30 -12 -46 -10
-16 1 -40 -4 -53 -13 -13 -9 -32 -16 -41 -16 -9 0 -27 -9 -41 -20 -14 -11 -33
-20 -42 -20 -9 0 -26 -7 -38 -15 -17 -12 -28 -13 -49 -5 -14 6 -35 8 -46 4
-17 -5 -19 -2 -16 22 2 22 10 29 44 39 72 21 193 85 302 159 126 86 182 116
216 116 20 0 39 18 88 83 34 45 100 122 146 171 115 123 229 328 282 506 12
41 31 104 42 140 22 75 61 140 84 140 8 0 25 -11 37 -24z m1947 -1 c0 -17 16
-20 25 -5 3 6 14 10 23 10 12 0 18 -10 19 -35 3 -31 0 -35 -21 -35 -20 0 -23
-4 -19 -21 5 -20 3 -21 -20 -15 -18 4 -36 1 -51 -9 -29 -19 -48 -12 -80 30
-24 31 -24 33 -7 49 10 9 24 16 32 16 8 1 25 7 39 15 33 19 60 19 60 0z m-742
-57 c14 -16 13 -18 -7 -18 -36 0 -35 -27 3 -83 28 -41 64 -131 66 -164 0 -2
-6 -3 -14 -3 -8 0 -22 10 -30 22 -16 22 -16 22 -16 -15 0 -25 6 -41 19 -49 18
-11 18 -12 -1 -55 -18 -40 -17 -83 1 -83 4 0 16 9 25 19 18 19 19 18 47 -37
27 -55 30 -77 7 -54 -21 21 -38 13 -38 -17 0 -35 20 -52 68 -60 31 -5 38 -11
40 -34 2 -19 9 -27 23 -27 32 0 55 -17 69 -50 23 -55 -1 -57 -68 -6 -33 25
-63 53 -66 63 -5 11 -10 13 -17 6 -16 -16 -2 -67 27 -98 29 -31 23 -52 -9 -30
-30 21 -54 19 -68 -7 -6 -13 -24 -33 -39 -46 -26 -20 -27 -25 -17 -51 12 -32
-2 -61 -29 -61 -17 0 -37 37 -28 52 5 8 2 9 -12 3 -10 -4 -27 -7 -37 -7 -19 1
-21 -3 -31 -50 -5 -21 -12 -28 -29 -28 -16 0 -27 -10 -37 -32 -7 -18 -15 -37
-18 -41 -2 -4 7 -5 21 -2 20 5 26 1 37 -24 6 -17 24 -34 39 -40 20 -7 13 -9
-37 -6 -48 2 -72 9 -100 28 -22 16 -73 34 -128 46 -91 19 -196 57 -234 84 -20
14 -19 16 37 58 91 68 143 119 186 184 22 33 55 76 73 95 24 26 41 59 59 119
23 79 30 95 69 166 9 17 16 43 16 58 0 41 44 166 80 228 35 60 73 96 79 76 2
-7 10 -20 19 -29z m32 -1 c0 -5 -7 -4 -15 3 -8 7 -15 20 -15 29 1 13 3 13 15
-3 8 -11 15 -24 15 -29z m-1160 -82 c7 -27 46 -117 86 -200 40 -82 87 -188
105 -235 93 -252 235 -433 390 -498 41 -17 109 -38 153 -46 64 -14 136 -39
136 -49 0 -1 -44 -2 -98 -2 l-98 0 -65 42 c-37 24 -88 47 -119 54 -41 10 -67
23 -102 56 -37 34 -55 43 -83 43 -40 0 -45 15 -19 55 11 17 13 29 6 42 -6 10
-7 24 -1 34 14 26 -25 69 -63 69 -23 0 -29 4 -24 16 25 65 15 94 -44 124 -22
11 -40 25 -40 30 0 6 -4 10 -9 10 -20 0 -20 -86 1 -144 12 -33 24 -54 26 -48
6 19 30 14 46 -11 9 -12 18 -56 22 -97 6 -65 11 -79 36 -107 17 -17 36 -42 42
-55 9 -18 21 -24 54 -26 27 -2 45 -9 49 -18 8 -22 55 -43 83 -37 19 3 32 -3
53 -26 23 -27 34 -31 77 -31 53 0 112 -19 142 -47 17 -15 20 -15 38 2 16 14
29 16 75 10 30 -3 55 -10 55 -14 0 -5 -23 -18 -51 -30 -46 -20 -56 -21 -107
-10 -31 6 -88 26 -127 45 -62 29 -78 33 -142 31 -40 -2 -75 -6 -79 -10 -4 -3
-16 0 -27 8 -23 16 -150 12 -200 -7 -44 -17 -106 12 -145 67 -19 28 -42 47
-59 51 -15 4 -42 15 -59 25 -41 25 -124 16 -164 -18 -15 -12 -35 -23 -44 -23
-31 0 -74 -29 -87 -60 -8 -16 -20 -32 -27 -35 -11 -4 -162 13 -170 20 -1 1 9
23 24 48 18 34 32 47 48 47 12 0 32 7 44 15 20 15 24 14 44 -5 29 -27 69 -25
102 5 31 28 32 44 8 76 -25 32 -32 53 -22 69 6 9 13 5 26 -15 17 -26 94 -89
100 -82 2 1 -3 21 -11 42 -22 61 -19 82 10 89 21 5 38 -2 83 -38 98 -75 147
-92 188 -62 26 20 8 48 -35 57 -18 4 -50 24 -71 44 -32 31 -37 41 -31 63 5 19
15 28 33 30 15 2 32 10 39 19 11 13 9 19 -14 39 -35 30 -34 35 3 21 23 -9 33
-8 42 1 10 10 2 23 -37 63 -44 45 -46 49 -18 34 26 -15 34 -16 47 -6 22 18 20
49 -4 89 -11 18 -20 47 -20 65 0 32 -19 101 -46 165 -15 35 -10 40 17 16 10
-9 26 -14 35 -10 17 7 17 9 -9 101 -8 28 -18 70 -22 95 -9 59 8 42 25 -25z
m1222 -140 c124 -400 250 -606 463 -757 94 -67 201 -120 316 -157 91 -29 268
-67 339 -73 34 -3 35 -4 38 -49 3 -45 2 -46 -30 -51 -43 -7 -121 5 -180 28
-39 15 -53 17 -78 7 -21 -8 -40 -8 -62 -1 -39 11 -88 -3 -88 -27 0 -20 -10
-19 -40 5 -14 11 -34 20 -46 20 -11 0 -35 11 -54 25 -19 14 -39 25 -45 25 -6
0 -18 9 -28 20 -9 11 -22 20 -29 20 -7 0 -26 14 -41 30 -16 17 -34 30 -41 30
-7 0 -21 9 -31 20 -27 30 -80 36 -124 15 -20 -10 -44 -17 -53 -16 -19 2 -69
-21 -91 -43 -10 -11 -23 -13 -43 -7 -18 5 -43 3 -66 -5 -41 -14 -118 -6 -183
19 l-40 16 38 0 c47 1 52 29 6 38 -22 4 -34 14 -41 34 -5 16 -16 29 -24 29
-20 0 -17 29 4 37 30 11 52 35 52 60 0 29 36 32 45 3 8 -25 50 -37 71 -19 11
9 15 26 12 56 -2 34 0 44 15 49 9 3 24 19 32 35 18 33 26 35 60 13 20 -13 28
-14 40 -4 21 18 19 28 -16 67 -34 39 -31 58 4 26 52 -48 99 -73 118 -62 10 5
19 17 19 27 0 30 -40 84 -70 95 -17 6 -30 18 -30 27 0 25 -21 40 -55 40 -33 0
-55 15 -55 37 0 11 4 11 20 1 15 -10 22 -10 31 -1 9 9 4 29 -22 82 -19 39 -39
71 -45 71 -6 0 -19 -10 -27 -22 -15 -22 -16 -22 -16 -3 -1 11 5 29 13 40 26
39 29 63 6 70 -31 10 -24 23 13 21 24 -1 31 3 28 14 -19 80 -34 118 -65 167
-32 51 -34 58 -19 61 10 2 23 8 28 14 7 6 13 -4 18 -29 5 -21 27 -96 49 -168z
m-1962 55 c1 -30 8 -77 14 -105 l13 -50 19 45 c11 25 31 80 44 122 13 43 25
76 28 74 2 -2 -6 -49 -17 -105 -23 -111 -26 -141 -11 -141 5 0 51 63 102 139
51 77 94 138 95 137 2 -2 -28 -68 -67 -149 -94 -195 -93 -200 15 -109 103 86
131 108 119 92 -6 -8 -43 -55 -83 -105 -39 -49 -67 -93 -62 -98 5 -5 25 -1 46
7 55 23 60 20 19 -16 -30 -26 -35 -36 -30 -60 l6 -28 -260 0 c-143 0 -260 2
-260 4 0 3 4 16 9 29 8 20 6 29 -10 43 -27 25 -24 31 16 26 42 -5 43 2 9 51
-14 21 -24 41 -21 43 3 3 24 -6 46 -20 26 -17 41 -22 41 -14 0 18 -27 94 -46
130 -28 55 -6 40 47 -31 29 -39 56 -68 61 -63 5 5 -1 63 -13 131 -11 68 -18
125 -15 128 2 3 14 -24 25 -59 36 -116 66 -188 77 -188 6 0 11 6 11 13 9 179
18 258 24 222 4 -22 9 -65 9 -95z m2563 15 c-1 -15 12 -61 28 -103 19 -47 28
-85 24 -99 -3 -13 0 -33 6 -45 9 -16 8 -30 -2 -60 -11 -36 -11 -41 8 -59 16
-17 25 -19 40 -10 11 6 23 7 27 4 14 -14 4 -73 -19 -117 -30 -57 -31 -69 -4
-105 17 -24 19 -31 8 -55 -11 -23 -10 -32 4 -56 24 -39 21 -63 -9 -100 -22
-26 -26 -38 -21 -75 2 -25 1 -45 -2 -45 -16 0 -138 64 -195 103 -78 52 -186
155 -186 177 0 9 22 63 50 119 27 56 56 133 64 170 9 41 37 113 70 177 30 60
60 129 66 154 15 55 19 62 33 57 7 -2 11 -17 10 -32z m-1470 -19 c-38 -33 -43
-23 -7 15 16 16 30 25 32 20 2 -6 -9 -22 -25 -35z m1517 -42 c12 -36 20 -68
17 -70 -6 -6 -47 100 -47 121 0 29 9 14 30 -51z m-1285 48 c6 -4 11 -24 12
-45 1 -32 -1 -36 -13 -27 -7 7 -37 12 -65 12 -43 0 -49 3 -43 17 3 9 9 24 11
34 4 13 16 17 47 17 22 0 46 -4 51 -8z m-145 -25 c0 -20 -4 -22 -41 -19 -39 4
-39 5 -23 23 25 28 64 25 64 -4z m256 -10 c1 -1 4 -11 8 -23 6 -19 2 -21 -39
-21 -39 0 -45 3 -45 22 0 30 10 37 44 31 16 -4 30 -7 32 -9z m-385 -73 c-16
-32 -34 -85 -41 -116 -7 -32 -15 -58 -17 -58 -2 0 -13 6 -26 13 -12 6 -23 13
-25 14 -2 0 9 25 23 55 29 57 104 162 111 155 2 -2 -9 -31 -25 -63z m69 42 c0
-11 -19 -15 -25 -6 -3 5 1 10 9 10 9 0 16 -2 16 -4z m58 -2 c33 -9 27 -21 -8
-16 -16 2 -30 8 -30 13 0 10 7 11 38 3z m132 -20 c0 -2 -7 -4 -15 -4 -8 0 -15
4 -15 10 0 5 7 7 15 4 8 -4 15 -8 15 -10z m-118 -56 c-4 -32 -7 -38 -21 -32
-9 3 -40 9 -68 12 -29 2 -53 6 -53 8 0 2 7 18 16 37 l16 33 56 -10 57 -9 -3
-39z m108 34 c33 -7 35 -9 36 -49 1 -38 -1 -41 -19 -32 -10 6 -39 11 -63 12
-38 2 -44 5 -44 24 0 52 15 60 90 45z m152 -32 c6 -37 1 -42 -24 -29 -11 6
-32 7 -49 4 -26 -6 -29 -4 -29 18 0 32 7 37 56 37 39 0 42 -2 46 -30z m-1712
-80 c0 -4 -15 -4 -33 -2 l-34 4 10 45 11 45 22 -44 c13 -24 23 -45 24 -48z
m2915 23 c9 -32 31 -86 47 -121 17 -35 28 -66 25 -69 -4 -3 -11 6 -16 20 -13
33 -28 42 -47 26 -13 -10 -17 -10 -25 2 -5 8 -6 21 -2 29 8 18 8 45 1 118 -3
28 -4 52 -2 52 1 0 10 -26 19 -57z m-1718 -13 c-6 -16 -15 -30 -19 -30 -12 0
-10 8 8 35 22 33 25 31 11 -5z m183 20 c0 -12 -8 -12 -35 0 -18 8 -17 9 8 9
15 1 27 -3 27 -9z m55 -10 c3 -5 -1 -10 -9 -10 -8 0 -18 5 -21 10 -3 6 1 10 9
10 8 0 18 -4 21 -10z m-40 -22 l50 -10 -3 -39 c-2 -21 -5 -39 -7 -39 -1 0 -17
7 -34 16 -22 11 -47 15 -72 11 -34 -4 -39 -3 -35 11 3 10 8 30 12 45 5 21 11
27 23 22 9 -4 39 -11 66 -17z m291 12 c32 0 34 -2 24 -21 -7 -11 -9 -27 -6
-35 5 -12 -1 -14 -32 -8 -20 4 -45 7 -54 6 -22 -1 -23 11 -3 28 9 7 13 20 10
28 -4 10 0 12 11 8 8 -3 31 -6 50 -6z m-99 -24 c1 -1 -4 -19 -11 -40 -8 -22
-16 -34 -20 -27 -4 6 -27 11 -52 11 -37 0 -44 3 -44 19 0 35 25 49 77 43 26
-2 49 -5 50 -6z m-1628 -37 c20 -26 22 -34 13 -55 -9 -18 -19 -24 -43 -24 -26
0 -30 3 -24 18 4 9 9 34 12 55 3 20 8 37 12 36 3 0 17 -14 30 -30z m1773 -21
c-6 -6 -8 -1 -7 14 4 39 8 44 12 19 3 -13 0 -28 -5 -33z m-472 -56 c-24 -3
-38 2 -47 14 -27 37 -13 43 35 16 l47 -27 -35 -3z m380 33 c0 -28 -21 -33 -40
-10 -15 18 -5 35 21 35 14 0 19 -7 19 -25z m-267 9 c4 -4 5 -10 2 -14 -6 -9
-65 0 -65 11 0 10 53 12 63 3z m137 -9 c0 -9 -9 -15 -25 -15 -24 0 -32 10 -18
23 12 13 43 7 43 -8z m191 5 c26 -15 24 -30 -5 -30 -15 0 -26 7 -29 20 -6 22
5 25 34 10z m126 -25 c-4 -8 -17 -15 -29 -15 l-23 1 24 20 c26 21 37 19 28 -6z
m-262 5 c3 -5 -1 -10 -9 -10 -9 0 -16 5 -16 10 0 6 4 10 9 10 6 0 13 -4 16
-10z m18 -25 c81 0 147 -3 147 -6 0 -17 -41 -41 -57 -34 -10 5 -22 7 -28 5 -5
-2 -58 -4 -116 -6 -59 -1 -113 -5 -119 -9 -8 -5 -18 -2 -24 6 -6 8 -24 25 -40
37 l-29 23 59 -8 c32 -4 125 -8 207 -8z m-1033 -33 c0 -5 -34 -46 -76 -93 -86
-94 -182 -210 -208 -251 -10 -15 -22 -26 -26 -23 -18 11 -110 -35 -217 -108
-115 -78 -219 -135 -295 -162 -24 -8 -46 -15 -49 -15 -7 0 25 173 42 220 7 19
38 96 69 170 32 74 67 165 79 203 l23 67 329 0 c181 0 329 -4 329 -8z m815
-16 c16 -24 19 -24 113 -20 53 2 115 6 137 7 22 2 48 -1 59 -6 14 -7 25 -2 46
18 20 19 36 26 59 23 l31 -3 -30 -31 c-16 -18 -50 -64 -75 -103 -35 -54 -70
-91 -140 -146 -52 -41 -96 -75 -99 -75 -8 0 -72 72 -105 117 -33 47 -71 115
-105 188 l-25 55 59 0 c52 0 62 -3 75 -24z m1222 -3 c-7 -16 -27 -56 -45 -90
-18 -34 -32 -69 -32 -78 0 -26 -16 -16 -46 28 -30 45 -94 156 -94 163 0 2 52
4 115 4 l114 0 -12 -27z m578 0 c5 -22 60 -167 103 -272 7 -19 -82 43 -127 88
-20 20 -43 56 -50 79 -8 24 -29 56 -48 72 -54 48 -45 60 41 60 72 0 74 -1 81
-27z m-1976 -47 c17 -21 4 -89 -16 -82 -8 3 -19 6 -24 6 -15 0 -40 73 -34 98
5 21 7 21 33 8 16 -8 34 -21 41 -30z m1884 -81 c29 -59 99 -127 179 -175 45
-27 60 -43 73 -76 22 -57 54 -228 44 -232 -12 -5 -140 15 -226 35 -57 13 -70
19 -62 30 8 9 16 10 29 3 23 -12 41 -12 60 0 12 7 9 13 -13 30 -15 12 -27 28
-27 36 0 8 -17 22 -37 30 -21 8 -48 27 -60 42 -27 32 -33 27 -37 -29 -2 -38 3
-49 30 -79 18 -19 31 -36 29 -38 -2 -2 -31 6 -64 19 l-61 22 0 46 c0 35 7 56
25 81 29 40 31 60 9 102 -13 26 -14 35 -3 55 10 19 11 28 1 41 -36 50 -36 60
-6 119 l29 58 31 -35 c17 -19 43 -58 57 -85z m-3474 54 c-24 -45 29 -97 79
-78 27 10 27 9 1 -35 -27 -47 -74 -187 -94 -282 -38 -181 -29 -447 20 -644 50
-198 150 -410 252 -536 37 -47 39 -52 17 -50 -24 2 -41 -30 -28 -51 15 -25 46
-22 59 4 9 17 14 20 23 11 16 -16 15 -28 -2 -28 -20 0 -28 -28 -15 -51 13 -25
40 -21 54 8 l11 21 24 -26 c17 -17 19 -24 8 -20 -18 7 -48 -20 -41 -39 2 -6
-6 -13 -19 -15 -15 -2 -24 -11 -26 -25 -2 -15 -10 -23 -23 -23 -14 0 -21 -9
-25 -29 l-6 -29 -59 37 c-59 36 -72 51 -44 51 20 0 34 30 25 55 -7 19 -5 21
14 18 12 -3 28 2 35 11 16 20 7 62 -15 70 -23 9 -54 -21 -54 -52 0 -19 -3 -22
-13 -13 -8 6 -16 8 -19 5 -3 -2 -8 7 -10 21 -4 18 -2 25 7 21 16 -6 55 21 55
38 0 7 -9 21 -20 31 -18 16 -23 17 -46 5 -19 -11 -24 -20 -21 -37 4 -20 1 -22
-15 -17 -22 7 -58 -21 -58 -44 0 -22 30 -52 52 -52 12 0 18 -7 18 -21 0 -17
-8 -14 -62 28 -82 62 -138 113 -138 124 0 5 9 9 19 9 21 0 51 35 51 59 0 21
-40 61 -62 61 -14 0 -17 5 -13 23 9 33 -29 77 -64 77 -36 0 -75 -41 -66 -69 9
-30 3 -26 -34 19 l-32 40 30 -6 c23 -5 35 -1 55 19 34 34 33 62 -4 98 -23 23
-35 29 -52 23 -22 -6 -22 -6 -5 13 24 28 21 70 -8 98 -30 30 -64 32 -99 4 -32
-25 -34 -66 -5 -104 18 -22 28 -26 55 -23 30 4 32 2 19 -12 -8 -9 -15 -24 -15
-33 0 -9 -4 -19 -10 -22 -5 -3 -10 -1 -10 6 0 7 -11 26 -24 43 -50 66 -186
337 -186 371 0 5 9 -1 20 -13 26 -28 79 -29 111 -3 18 14 24 29 24 61 0 51
-30 80 -81 80 -46 0 -74 -29 -74 -77 0 -20 -2 -34 -5 -31 -9 9 -53 178 -65
248 -6 36 -13 79 -17 95 l-5 30 25 -27 c33 -36 67 -43 106 -24 36 19 51 44 51
83 0 33 -25 73 -46 73 -8 0 -14 5 -14 10 0 6 9 10 19 10 28 0 61 47 61 87 0
48 -37 83 -88 83 -54 0 -82 -25 -89 -77 -5 -38 -2 -46 26 -72 l31 -29 -25 -6
c-13 -3 -31 -19 -39 -34 -14 -26 -15 -23 -15 58 -1 188 30 282 107 327 43 25
57 28 202 34 155 7 242 25 310 64 35 20 43 18 29 -6z m95 -1 c30 -43 -24 -82
-66 -48 -20 15 -21 21 -10 44 15 33 54 35 76 4z m3734 5 c18 -34 -13 -75 -49
-66 -28 8 -42 38 -29 63 14 26 66 27 78 3z m37 7 c3 -5 43 -21 88 -36 68 -22
108 -28 237 -34 163 -7 193 -15 237 -62 47 -50 63 -109 69 -250 5 -131 5 -133
-13 -105 -10 16 -30 31 -47 34 l-29 6 25 13 c51 27 60 102 18 144 -27 27 -89
27 -124 -1 -50 -40 -23 -149 38 -149 17 0 16 -4 -13 -27 -83 -70 -5 -190 95
-148 19 8 34 21 34 29 0 8 4 17 9 21 20 12 -27 -228 -70 -360 -35 -107 -131
-304 -191 -394 -38 -57 -43 -62 -46 -40 -2 13 -9 30 -14 37 -8 9 -4 12 15 12
34 0 66 29 73 67 5 26 1 37 -19 57 -74 74 -175 -26 -104 -102 l22 -23 -26 9
c-40 16 -88 -20 -89 -66 0 -33 45 -75 76 -69 31 6 30 0 -6 -43 l-29 -35 -1 29
c0 16 -7 38 -17 48 -16 18 -59 24 -79 10 -20 -13 -35 -52 -29 -72 5 -16 2 -20
-14 -20 -28 0 -61 -34 -61 -63 0 -29 26 -54 60 -59 21 -3 13 -13 -75 -85 -55
-46 -103 -83 -107 -83 -4 0 -8 7 -8 15 0 8 8 15 18 15 28 0 55 35 47 59 -8 25
-41 45 -61 37 -11 -4 -14 -1 -10 12 4 12 -1 26 -14 37 -17 15 -24 16 -45 7
-14 -7 -25 -20 -25 -31 0 -23 36 -52 55 -45 9 4 11 -2 8 -19 -4 -17 -11 -25
-28 -25 -16 1 -21 5 -18 17 2 9 -5 25 -16 35 -19 18 -22 18 -46 2 -14 -9 -25
-23 -25 -31 0 -20 28 -45 50 -45 13 0 17 -5 14 -14 -7 -19 13 -56 31 -56 27 0
15 -15 -38 -47 -51 -33 -84 -43 -72 -23 9 15 -13 40 -35 40 -11 0 -16 8 -16
23 1 16 -5 23 -22 25 -14 2 -21 9 -20 19 2 8 -6 20 -17 27 -11 6 -22 12 -24
13 -6 4 20 33 29 33 4 0 10 -9 13 -20 3 -12 14 -20 25 -20 15 0 19 -5 15 -19
-6 -22 30 -47 49 -35 8 5 9 2 5 -10 -9 -23 9 -56 32 -56 10 0 25 8 34 18 15
17 15 20 1 41 -11 15 -23 21 -36 18 -15 -4 -18 -1 -13 13 7 23 -20 51 -41 43
-13 -5 -15 -1 -10 15 5 15 0 25 -16 36 -21 15 -21 17 -5 33 16 16 17 16 17 -4
0 -35 51 -41 64 -7 8 21 -3 42 -25 49 -18 6 -17 10 16 53 231 306 340 750 276
1124 -27 155 -47 216 -119 371 -3 5 5 4 16 -2 14 -7 29 -8 47 -1 29 11 52 57
35 74 -5 5 -10 14 -10 18 0 11 18 10 25 -2z m-2201 -113 c16 -11 17 -17 7 -36
-9 -16 -9 -26 -1 -35 8 -10 6 -22 -7 -45 -24 -42 -9 -64 47 -72 35 -5 50 -14
79 -48 22 -25 44 -41 58 -41 48 0 191 -67 193 -90 0 -3 -19 -4 -42 -2 -30 3
-50 13 -69 33 -21 22 -36 29 -66 29 -29 0 -46 7 -63 25 -16 17 -34 25 -56 25
-27 0 -37 6 -48 29 -8 15 -26 35 -39 44 -20 13 -25 26 -30 84 -3 37 -9 78 -13
91 -5 17 -2 22 13 22 11 0 27 -6 37 -13z m-2149 -200 c24 -34 19 -73 -12 -97
-47 -37 -113 -4 -113 55 0 66 88 95 125 42z m4928 1 c34 -40 9 -105 -43 -109
-49 -3 -58 1 -74 36 -19 39 -12 63 27 90 27 19 65 12 90 -17z m-999 -67 c10
-11 27 -21 39 -23 11 -2 29 -18 38 -35 20 -36 14 -42 -17 -18 -25 19 -34 19
-34 -2 0 -27 -47 36 -52 70 -5 32 2 34 26 8z m-2135 -25 c9 -7 32 -19 51 -25
22 -7 45 -27 63 -52 33 -48 86 -73 136 -65 106 17 119 17 125 7 5 -7 13 -7 26
1 15 10 27 10 55 0 19 -8 39 -10 45 -7 6 4 41 7 78 7 56 0 80 -5 149 -36 113
-51 165 -56 238 -22 64 29 85 32 103 14 10 -10 19 -8 44 6 28 17 75 22 143 16
11 -1 35 4 53 11 24 10 39 11 60 3 25 -10 32 -8 60 18 23 20 43 28 68 28 19 0
42 7 50 15 23 22 90 19 114 -5 11 -11 25 -20 32 -20 16 0 48 -31 48 -47 0 -7
11 -13 25 -13 14 0 30 -9 37 -20 7 -11 23 -20 36 -20 14 0 27 -9 34 -25 9 -19
19 -25 45 -25 24 0 44 -10 73 -36 l39 -36 15 36 c12 29 20 36 43 36 16 0 34
-5 40 -11 8 -8 17 -8 31 0 34 18 97 13 125 -9 18 -15 34 -19 52 -14 15 4 37 1
50 -6 17 -9 28 -9 43 -1 11 6 25 11 31 11 15 0 14 -84 -1 -187 l-12 -83 -633
0 -632 0 -6 33 c-3 17 -7 41 -9 52 -2 11 -9 21 -17 22 -8 1 -40 5 -72 8 -58 7
-58 7 -55 38 3 31 4 32 48 29 50 -4 93 21 103 57 4 17 1 19 -23 14 -39 -7
-127 15 -135 34 -13 35 -26 -6 -26 -85 l-1 -82 -25 6 c-20 5 -30 1 -44 -17
-10 -13 -19 -18 -19 -11 0 7 12 24 26 39 14 14 24 27 22 28 -2 2 -41 8 -88 14
-122 16 -132 19 -128 38 2 14 13 17 54 14 47 -2 53 0 78 29 35 42 34 64 -3 41
-17 -11 -123 16 -134 35 -16 28 -27 2 -27 -66 l0 -69 -29 5 c-23 5 -32 1 -50
-24 -27 -39 -51 -105 -52 -146 0 -31 0 -31 -10 -6 -6 14 -9 48 -7 75 l3 50
-60 9 c-33 5 -61 10 -61 10 -1 1 -5 16 -9 34 l-7 33 41 -7 c51 -8 95 9 110 42
6 14 11 26 11 27 0 1 -21 3 -47 3 -70 2 -113 14 -113 31 0 24 -25 9 -28 -18
-2 -13 -23 -44 -46 -69 -24 -25 -82 -91 -130 -147 l-88 -103 -673 0 -672 0 -7
48 c-4 26 -9 89 -13 140 l-6 92 37 0 c21 0 47 -5 58 -11 18 -9 24 -8 35 7 7
10 24 19 37 19 13 1 36 11 51 23 17 14 36 20 47 17 10 -4 18 -1 18 5 0 18 52
32 77 21 17 -8 24 -7 30 3 13 22 46 34 76 29 16 -3 27 -1 27 6 0 6 17 19 38
29 29 15 55 18 122 16 133 -5 134 -5 146 -15 6 -5 19 -7 28 -3 24 9 66 -4 66
-21 0 -20 16 -19 24 1 4 10 13 13 26 9 16 -5 20 -2 20 18 0 40 36 77 76 77 19
0 34 5 34 10 0 35 137 65 169 36z m-1816 -88 c26 -30 22 -73 -9 -97 -15 -12
-34 -21 -44 -21 -33 0 -70 39 -70 74 0 68 78 95 123 44z m4980 -22 c20 -59
-34 -110 -91 -87 -63 26 -61 107 3 131 30 12 77 -12 88 -44z m-2192 12 c22 -6
39 -15 39 -21 0 -5 -10 -6 -22 -3 -58 18 -104 18 -121 1 -16 -15 -19 -15 -42
4 l-26 20 23 4 c46 9 112 7 149 -5z m120 -20 c44 -13 49 -23 17 -32 -27 -7
-78 14 -78 31 0 16 12 16 61 1z m-561 -170 c0 -4 -25 -8 -55 -8 -39 0 -55 4
-55 13 0 8 2 16 5 19 7 7 105 -15 105 -24z m267 11 c36 -10 42 -14 29 -21 -24
-13 -96 0 -96 18 0 17 8 17 67 3z m-407 -66 c0 -46 -2 -49 -46 -77 -26 -16
-73 -54 -105 -84 -100 -92 -83 -53 34 80 62 70 113 127 115 128 1 0 2 -21 2
-47z m729 7 c11 -7 -1 -9 -41 -10 -47 0 -58 3 -58 16 0 14 7 15 42 10 22 -4
48 -11 57 -16z m-369 -49 c159 -21 150 -17 138 -52 -6 -18 -8 -59 -5 -95 6
-62 2 -74 -18 -55 -17 16 -117 41 -164 41 -26 0 -61 -4 -80 -10 l-34 -9 7 46
c7 53 51 157 64 150 4 -3 46 -10 92 -16z m-225 -34 c2 -1 4 -29 7 -63 l4 -60
-40 14 c-24 8 -67 12 -103 10 -35 -2 -63 -1 -63 2 0 3 16 29 36 59 l36 54 61
-7 c33 -3 61 -7 62 -9z m-2280 -42 c45 -44 21 -105 -40 -105 -66 0 -85 83 -26
115 35 19 38 19 66 -10z m2800 -3 l80 -7 1 -50 c0 -27 6 -60 13 -72 13 -26 12
-27 -26 -12 -36 14 -162 14 -176 0 -20 -20 -25 -11 -21 46 4 66 21 114 38 107
7 -3 48 -8 91 -12z m-724 -20 c-30 -43 -85 -157 -124 -257 -36 -93 -41 -110
-77 -232 l-21 -72 -36 24 c-20 14 -43 25 -52 26 -23 1 -52 7 -57 12 -8 8 85
184 140 267 32 47 97 124 144 173 87 87 121 112 83 59z m69 -61 c0 -5 -18 -11
-40 -13 -42 -4 -56 8 -17 15 40 8 57 7 57 -2z m109 -7 c2 -2 -15 -4 -38 -4
-25 0 -40 4 -36 10 5 8 63 3 74 -6z m-98 -27 c-10 -9 -11 -8 -5 6 3 10 9 15
12 12 3 -3 0 -11 -7 -18z m-291 -6 c0 -2 -17 -24 -38 -50 -52 -62 -166 -223
-194 -272 -23 -42 -25 -42 -85 -18 -37 15 -54 6 -32 -16 8 -8 101 -55 207
-105 217 -101 272 -134 363 -220 l64 -60 -40 15 c-21 9 -47 23 -57 31 -16 15
-19 14 -44 -5 -37 -29 -85 -27 -116 4 l-26 25 -35 -35 c-47 -47 -102 -49 -143
-5 l-28 29 -29 -29 c-16 -17 -40 -30 -53 -30 -15 0 -24 -6 -24 -15 0 -8 2 -15
5 -15 16 0 72 29 84 44 13 15 16 15 37 -5 13 -12 41 -23 66 -26 36 -4 49 0 84
25 40 29 40 29 63 11 29 -24 77 -24 116 -1 29 18 30 18 62 -4 48 -32 100 -38
154 -19 24 9 53 15 64 14 11 -2 76 -1 145 0 69 2 162 3 208 2 46 -1 91 3 100
8 12 7 22 5 32 -4 9 -8 33 -17 55 -20 32 -5 47 -2 75 17 l35 24 28 -20 c42
-31 104 -28 148 6 35 26 35 26 60 7 32 -25 80 -24 113 2 26 20 26 20 53 1 35
-25 105 -44 116 -33 9 9 0 13 -54 25 -14 3 -42 17 -62 30 -28 20 -38 22 -44
12 -11 -18 -47 -36 -72 -36 -11 0 -34 12 -51 26 l-31 27 -15 -22 c-39 -55
-119 -63 -164 -16 l-23 24 -30 -29 c-17 -17 -35 -30 -41 -30 -18 0 160 162
211 192 58 33 67 43 58 58 -4 6 -40 -8 -89 -35 l-82 -45 4 113 c2 61 -1 159
-7 217 -7 58 -15 134 -18 170 l-5 65 621 0 621 0 0 -21 c0 -71 -107 -317 -197
-453 -72 -109 -248 -284 -384 -383 -219 -159 -365 -223 -706 -312 -114 -30
-233 -64 -264 -75 -77 -29 -167 -89 -210 -139 -20 -23 -44 -42 -55 -42 -10 0
-32 16 -47 35 -35 44 -133 111 -208 141 -32 13 -139 44 -236 69 -334 85 -488
148 -670 271 -343 232 -544 491 -637 820 -13 46 -22 85 -21 86 5 4 1315 4
1315 -1z m50 3 c0 -4 -15 -25 -34 -48 -56 -68 -128 -187 -162 -264 -17 -40
-34 -76 -37 -78 -8 -8 -47 6 -47 17 0 14 63 109 168 252 82 112 112 144 112
121z m410 -13 c0 -17 -4 -18 -37 -10 -21 5 -53 9 -70 9 -18 0 -33 5 -33 10 0
6 30 10 70 10 62 0 70 -2 70 -19z m125 8 c4 -6 5 -12 3 -15 -8 -7 -98 8 -98
17 0 13 88 11 95 -2z m158 -20 c21 -11 37 -22 35 -23 -3 -3 -121 13 -145 20
-7 2 -13 10 -13 19 0 13 8 15 42 10 23 -4 59 -16 81 -26z m-398 -10 c116 -15
115 -14 104 -52 -5 -17 -9 -65 -9 -105 l0 -73 -26 20 c-47 37 -122 56 -222 56
-66 0 -91 3 -88 12 3 6 19 44 35 85 l31 73 47 -3 c27 -1 84 -7 128 -13z m293
-19 c74 -11 136 -20 138 -20 3 0 -1 -10 -7 -22 -11 -21 -8 -95 7 -163 6 -25 5
-28 -7 -19 -45 36 -206 58 -282 39 -27 -7 -27 -7 -27 48 0 52 26 157 39 157 3
0 66 -9 139 -20z m237 10 c-3 -5 -10 -10 -16 -10 -5 0 -9 5 -9 10 0 6 7 10 16
10 8 0 12 -4 9 -10z m110 0 c4 -6 -8 -10 -29 -10 -19 0 -38 5 -41 10 -4 6 8
10 29 10 19 0 38 -4 41 -10z m-39 -30 l92 0 0 -63 c0 -35 5 -74 12 -87 11 -21
11 -22 -6 -15 -69 29 -104 36 -159 33 -33 -2 -68 -8 -77 -12 -25 -12 -35 68
-14 118 13 32 20 37 38 32 13 -3 64 -6 114 -6z m127 -99 c4 -33 3 -51 -3 -45
-5 5 -12 34 -16 64 -4 37 -3 52 3 45 6 -5 13 -34 16 -64z m-2791 -38 c37 -34
15 -93 -35 -93 -39 0 -57 15 -57 48 0 57 51 83 92 45z m4520 0 c10 -9 18 -26
18 -39 0 -54 -76 -75 -105 -30 -15 22 -15 27 0 55 18 36 56 42 87 14z m-2532
-33 c0 -16 -4 -30 -10 -30 -5 0 -43 11 -85 24 l-76 24 -11 -26 c-16 -42 -49
-213 -42 -223 3 -5 -4 -9 -15 -9 -19 0 -19 3 9 108 47 176 34 162 140 162 l90
0 0 -30z m142 -27 c68 -42 58 -44 -69 -17 -18 3 -23 11 -23 34 0 28 1 29 28
18 15 -7 43 -22 64 -35z m458 32 c0 -16 -35 -21 -45 -6 -4 8 9 15 38 20 4 0 7
-6 7 -14z m135 -11 c28 -13 26 -14 -30 -8 -66 7 -70 8 -60 23 7 12 43 6 90
-15z m-775 -40 c47 -12 115 -26 151 -29 l67 -7 -14 -34 c-8 -19 -14 -68 -14
-115 l0 -82 -27 28 c-68 69 -225 103 -287 62 -14 -9 -28 -17 -31 -17 -10 0 -5
61 11 138 19 91 21 96 43 86 9 -4 54 -18 101 -30z m350 21 c0 -12 -14 -15 -62
-15 -84 0 -58 26 30 29 22 1 32 -4 32 -14z m151 -16 c34 -18 20 -26 -28 -18
-27 4 -55 8 -65 8 -13 1 -18 21 -9 37 2 4 86 -18 102 -27z m226 0 l102 -11
-21 -29 c-24 -33 -29 -110 -9 -147 15 -28 10 -28 -33 2 -61 41 -195 53 -245
21 -22 -13 19 69 50 101 19 20 27 34 20 38 -6 4 -11 15 -11 25 0 13 6 17 23
15 12 -2 68 -8 124 -15z m-322 -34 c65 -8 125 -15 133 -15 8 0 3 -13 -15 -37
-24 -31 -28 -46 -28 -98 l0 -62 -45 23 c-63 32 -130 47 -189 43 -50 -4 -51 -3
-51 24 0 37 25 96 52 118 11 11 21 19 22 19 1 0 55 -7 121 -15z m444 -102 c-1
-100 -2 -106 -14 -78 -22 48 -28 110 -15 149 20 63 30 39 29 -71z m-2729 77
c24 -24 25 -47 3 -72 -23 -26 -59 -23 -79 7 -19 29 -11 63 19 75 32 13 35 12
57 -10z m4382 -4 c12 -17 9 -61 -4 -74 -30 -30 -88 -2 -88 43 0 45 68 68 92
31z m-2805 -116 c3 -10 2 -11 -4 -4 -4 6 -15 14 -23 17 -11 5 -9 6 4 4 11 -1
21 -9 23 -17z m-1478 -12 c12 -32 2 -57 -25 -64 -48 -12 -75 18 -56 62 16 33
69 34 81 2z m2415 -40 l-2 -61 -41 0 c-47 0 -67 19 -73 68 -4 34 27 55 82 55
l35 0 -1 -62z m1777 41 c17 -33 -3 -69 -39 -69 -33 0 -52 16 -52 45 0 29 19
45 52 45 18 0 31 -7 39 -21z m-1754 -11 c-3 -8 -6 -5 -6 6 -1 11 2 17 5 13 3
-3 4 -12 1 -19z m86 1 c42 -21 97 -66 97 -80 0 -4 -34 -9 -75 -11 l-75 -3 0
42 c0 23 -3 48 -6 57 -8 22 9 20 59 -5z m-725 5 c17 -5 22 -13 22 -41 l0 -36
-42 7 c-56 9 -138 36 -138 45 0 21 110 38 158 25z m300 -10 c29 -6 31 -9 28
-45 -2 -22 -6 -39 -9 -39 -4 0 -34 0 -67 0 l-60 0 0 39 c0 29 5 41 18 44 27 7
57 8 90 1z m-508 -25 c0 -14 -16 -11 -29 5 -10 12 -8 13 8 9 12 -3 21 -9 21
-14z m360 -51 c0 -6 -7 -7 -16 -4 -9 3 -27 6 -40 6 -20 0 -24 5 -24 30 l0 30
40 -26 c22 -15 40 -31 40 -36z m210 22 c0 -22 -4 -40 -10 -40 -5 0 -10 18 -10
40 0 22 5 40 10 40 6 0 10 -18 10 -40z m282 4 c2 -19 0 -37 -4 -40 -4 -3 -8
13 -8 35 0 51 6 53 12 5z m-597 -42 c110 -15 205 -20 440 -21 173 -1 315 3
334 9 19 5 37 7 40 4 9 -9 -132 -133 -151 -134 -10 0 -27 9 -38 20 -17 17 -24
18 -41 9 -12 -6 -40 -10 -63 -9 -66 2 -98 1 -149 -6 -28 -3 -53 -2 -59 4 -7 7
-19 5 -36 -4 -35 -18 -84 -18 -129 1 -32 14 -38 14 -53 0 -9 -8 -31 -18 -48
-21 -29 -6 -38 0 -110 68 -44 40 -100 85 -125 98 -65 34 -67 54 -4 25 34 -16
100 -31 192 -43z m396 41 c27 -14 49 -29 49 -32 0 -3 -24 -6 -54 -6 -54 0 -54
0 -58 33 -5 39 1 39 63 5z m-2263 -29 c2 -1 2 -12 0 -24 -3 -21 -4 -20 -33 10
l-30 32 30 -8 c17 -4 31 -8 33 -10z m90 4 c31 -31 -11 -88 -50 -67 -18 9 -26
58 -11 72 11 11 48 8 61 -5z m4030 3 c8 -5 12 -21 10 -37 -3 -26 -7 -29 -38
-29 -29 0 -36 4 -38 23 -6 41 31 65 66 43z m82 -2 c0 -3 -11 -16 -25 -29 -20
-19 -25 -20 -25 -8 0 9 -2 22 -5 30 -4 9 4 13 25 13 16 0 30 -3 30 -6z m-3882
-112 c4 -20 -25 -34 -40 -19 -15 15 -1 44 19 40 10 -2 19 -11 21 -21z m3556
14 c9 -14 -4 -41 -19 -41 -18 0 -28 17 -21 35 6 17 32 20 40 6z m-3429 -22 c0
-7 -8 -15 -17 -17 -18 -3 -25 18 -11 32 10 10 28 1 28 -15z m3291 10 c10 -17
-13 -36 -27 -22 -12 12 -4 33 11 33 5 0 12 -5 16 -11z m-3481 -59 c8 -26 -1
-40 -26 -40 -22 0 -34 22 -25 45 8 22 44 18 51 -5z m123 -8 c3 -16 -2 -22 -16
-22 -24 0 -35 23 -19 39 16 16 31 8 35 -17z m3430 5 c4 -21 -25 -34 -40 -19
-8 8 -8 16 2 27 16 19 34 15 38 -8z m132 8 c17 -20 5 -45 -20 -45 -23 0 -35
22 -26 45 7 19 30 19 46 0z m-3440 -21 c0 -8 -7 -14 -15 -14 -15 0 -21 21 -9
33 10 9 24 -2 24 -19z m3176 15 c10 -17 -13 -36 -27 -22 -12 12 -4 33 11 33 5
0 12 -5 16 -11z m-3358 -78 c-4 -35 -41 -37 -46 -2 -4 26 13 42 35 34 8 -3 13
-16 11 -32z m3567 11 c8 -20 -19 -47 -39 -39 -26 10 -32 38 -12 53 21 15 42 9
51 -14z m-157 -5 c2 -10 -3 -17 -12 -17 -18 0 -29 16 -21 31 9 14 29 6 33 -14z
m-3168 -8 c0 -5 -7 -9 -15 -9 -15 0 -20 12 -9 23 8 8 24 -1 24 -14z m39 -23
c-12 -6 -21 -15 -20 -20 1 -5 -8 -14 -21 -20 -13 -7 -22 -20 -22 -29 1 -10 -5
-17 -17 -17 -12 0 -21 -9 -25 -25 -6 -25 -15 -31 -27 -18 -4 3 0 14 9 24 9 10
14 26 10 35 -4 12 -2 15 9 11 18 -8 48 21 41 39 -3 9 2 14 14 14 13 0 22 9 26
25 6 25 7 25 25 9 19 -17 19 -17 -2 -28z m2996 -6 c12 -3 20 -14 20 -25 0 -13
8 -21 23 -23 14 -2 22 -10 22 -24 0 -14 -5 -18 -16 -14 -9 3 -20 6 -25 6 -5 0
-8 3 -7 8 3 15 -15 42 -28 42 -8 0 -14 7 -14 16 0 9 -9 18 -20 21 -20 5 -20 6
-3 25 18 20 18 20 23 -3 3 -13 15 -26 25 -29z m20 41 c7 -12 -12 -24 -25 -16
-11 7 -4 25 10 25 5 0 11 -4 15 -9z m-2998 -67 c-9 -9 -28 6 -21 18 4 6 10 6
17 -1 6 -6 8 -13 4 -17z m35 11 c0 -5 -5 -11 -11 -13 -6 -2 -11 4 -11 13 0 9
5 15 11 13 6 -2 11 -8 11 -13z m2858 -1 c0 -8 -5 -12 -10 -9 -6 4 -8 11 -5 16
9 14 15 11 15 -7z m40 -5 c0 -5 -4 -9 -10 -9 -5 0 -10 7 -10 16 0 8 5 12 10 9
6 -3 10 -10 10 -16z m230 1 c0 -21 -24 -28 -35 -10 -8 14 3 30 21 30 8 0 14
-9 14 -20z m-3262 -2 c-6 -18 -28 -21 -28 -4 0 9 7 16 16 16 9 0 14 -5 12 -12z
m3140 0 c-6 -18 -28 -21 -28 -4 0 9 7 16 16 16 9 0 14 -5 12 -12z m-3028 -28
c0 -5 -15 -24 -33 -42 -18 -19 -36 -42 -40 -51 -4 -10 -11 -16 -16 -13 -13 9
11 55 32 62 9 3 17 14 17 24 0 16 12 27 33 29 4 1 7 -3 7 -9z m40 0 c0 -5 -4
-10 -10 -10 -5 0 -10 5 -10 10 0 6 5 10 10 10 6 0 10 -4 10 -10z m2790 0 c0
-5 -4 -10 -10 -10 -5 0 -10 5 -10 10 0 6 5 10 10 10 6 0 10 -4 10 -10z m40 0
c0 -5 -4 -10 -10 -10 -5 0 -10 5 -10 10 0 6 5 10 10 10 6 0 10 -4 10 -10z m52
-12 c2 -12 12 -27 23 -33 11 -6 21 -17 23 -25 2 -8 8 -17 13 -18 11 -4 2 -22
-12 -22 -5 0 -9 7 -9 15 0 8 -9 20 -20 27 -11 7 -20 18 -20 25 0 7 -9 17 -20
23 -22 12 -18 30 5 30 7 0 15 -10 17 -22z m-2974 0 c-6 -18 -28 -21 -28 -4 0
9 7 16 16 16 9 0 14 -5 12 -12z m3020 0 c-6 -18 -28 -21 -28 -4 0 9 7 16 16
16 9 0 14 -5 12 -12z m-3130 -15 c-4 -22 -22 -20 -26 1 -2 10 3 16 13 16 10 0
15 -7 13 -17z m3242 4 c0 -8 -3 -17 -7 -20 -9 -9 -34 13 -27 24 8 14 34 11 34
-4z m-3030 -11 c0 -8 -7 -16 -15 -20 -15 -5 -21 14 -8 27 11 12 23 8 23 -7z
m63 -17 c-3 -11 -12 -23 -19 -26 -8 -3 -14 -11 -14 -19 0 -8 -9 -23 -20 -34
-16 -16 -24 -18 -41 -10 -11 6 -17 15 -14 21 10 15 25 10 26 -8 0 -14 2 -13 9
5 5 12 14 22 20 22 5 0 10 9 10 20 0 11 4 20 9 20 5 0 13 9 16 20 8 26 25 16
18 -11z m2714 -48 c6 -3 13 -17 17 -31 6 -21 5 -22 -4 -7 -6 9 -18 17 -26 17
-8 0 -12 5 -9 11 4 5 0 18 -8 27 -18 22 -27 48 -19 56 3 4 13 -10 22 -30 10
-20 22 -39 27 -43z m-7 69 c0 -5 -5 -10 -11 -10 -5 0 -7 5 -4 10 3 6 8 10 11
10 2 0 4 -4 4 -10z m40 -11 c0 -5 -4 -9 -10 -9 -5 0 -10 7 -10 16 0 8 5 12 10
9 6 -3 10 -10 10 -16z m-2850 -10 c0 -5 -7 -9 -15 -9 -15 0 -20 12 -9 23 8 8
24 -1 24 -14z m2900 0 c0 -5 -7 -9 -15 -9 -15 0 -20 12 -9 23 8 8 24 -1 24
-14z m-2770 1 c0 -5 -5 -10 -11 -10 -5 0 -7 5 -4 10 3 6 8 10 11 10 2 0 4 -4
4 -10z m2625 1 c3 -5 1 -12 -5 -16 -5 -3 -10 1 -10 9 0 18 6 21 15 7z m-2860
-10 c7 -12 -12 -24 -25 -16 -11 7 -4 25 10 25 5 0 11 -4 15 -9z m3105 -7 c0
-17 -22 -14 -28 4 -2 7 3 12 12 12 9 0 16 -7 16 -16z m42 1 c0 -5 -5 -11 -11
-13 -6 -2 -11 4 -11 13 0 9 5 15 11 13 6 -2 11 -8 11 -13z m-2888 -17 c-4 -13
-10 -25 -14 -28 -3 -3 -13 -20 -21 -37 -8 -18 -17 -33 -21 -33 -15 0 -8 51 7
56 8 4 15 13 15 20 0 16 20 43 33 44 5 0 5 -10 1 -22z m2582 8 c8 -8 14 -21
14 -29 0 -9 4 -17 9 -19 5 -1 12 -16 16 -33 l7 -30 -21 25 c-11 14 -21 30 -21
37 0 6 -4 13 -9 15 -10 4 -25 48 -16 48 4 0 13 -6 21 -14z m-2726 -6 c0 -10
-36 -50 -44 -50 -3 0 2 14 10 30 15 29 34 40 34 20z m35 0 c-3 -5 -10 -10 -16
-10 -5 0 -9 5 -9 10 0 6 7 10 16 10 8 0 12 -4 9 -10z m2795 0 c0 -5 -4 -10
-10 -10 -5 0 -10 5 -10 10 0 6 5 10 10 10 6 0 10 -4 10 -10z m55 -23 l8 -22 4
23 c5 23 18 29 28 12 4 -6 -4 -19 -17 -29 -22 -18 -23 -18 -30 -2 -3 10 -14
21 -23 25 -9 3 -14 10 -10 15 9 15 32 2 40 -22z m-2935 2 c0 -5 -7 -9 -15 -9
-15 0 -20 12 -9 23 8 8 24 -1 24 -14z m145 1 c-3 -5 -10 -10 -16 -10 -5 0 -9
5 -9 10 0 6 7 10 16 10 8 0 12 -4 9 -10z m224 -55 c204 -102 311 -140 591
-211 191 -49 275 -83 335 -135 l38 -34 -84 -15 -84 -15 -59 47 c-128 102 -453
231 -758 299 -138 31 -148 35 -148 56 0 13 5 23 11 23 5 0 7 5 4 10 -6 9 11
40 21 40 2 0 62 -29 133 -65z m2364 27 c22 -50 21 -62 -3 -62 -35 0 -361 -87
-485 -130 -162 -56 -348 -148 -410 -203 l-50 -45 -65 14 c-36 7 -76 14 -89 14
-23 0 -23 1 10 31 57 52 165 96 349 143 267 68 413 121 615 224 55 28 103 51
106 51 3 1 13 -16 22 -37z m87 28 c0 -5 -4 -10 -10 -10 -5 0 -10 5 -10 10 0 6
5 10 10 10 6 0 10 -4 10 -10z m90 -25 c0 -8 -4 -15 -10 -15 -5 0 -10 7 -10 15
0 8 5 15 10 15 6 0 10 -7 10 -15z m-2790 -20 c0 -8 -4 -15 -10 -15 -5 0 -10 7
-10 15 0 8 5 15 10 15 6 0 10 -7 10 -15z m2730 0 c0 -8 -4 -15 -10 -15 -5 0
-10 7 -10 15 0 8 5 15 10 15 6 0 10 -7 10 -15z m-2674 -32 c-10 -10 -19 5 -10
18 6 11 8 11 12 0 2 -7 1 -15 -2 -18z m2614 13 c0 -3 -4 -8 -10 -11 -5 -3 -10
-1 -10 4 0 6 5 11 10 11 6 0 10 -2 10 -4z m-30 -63 c-71 -58 -177 -167 -298
-309 -61 -73 -142 -160 -179 -194 -64 -59 -171 -119 -237 -134 -25 -6 -28 -5
-21 11 27 63 16 121 -33 175 -35 38 -138 98 -172 98 -24 1 39 53 121 101 137
79 377 166 639 229 74 17 153 38 175 45 22 7 42 14 45 14 3 0 -15 -16 -40 -36z
m-2551 17 c20 -5 92 -24 161 -40 260 -64 481 -142 615 -218 77 -43 145 -91
145 -102 0 -3 -21 -14 -48 -24 -132 -54 -198 -149 -167 -240 13 -36 12 -36
-14 -30 -14 3 -60 22 -101 42 -61 29 -94 55 -180 141 -58 59 -158 168 -224
244 -65 75 -121 137 -125 137 -10 1 -116 100 -107 100 5 0 25 -4 45 -10z
m1536 -374 c75 -17 175 -54 175 -65 0 -4 -17 -5 -37 -3 -45 3 -98 -22 -126
-60 -30 -40 -37 -140 -16 -205 l17 -52 -27 -6 c-15 -3 -45 -23 -68 -45 -72
-67 -87 -73 -176 -74 -108 -1 -127 5 -192 64 -30 27 -66 52 -80 56 -30 7 -29
3 -10 47 8 20 15 64 15 98 0 110 -47 167 -147 178 l-55 6 68 27 c117 45 218
58 414 54 110 -3 201 -10 245 -20z m-495 -436 c14 -10 34 -28 45 -41 l20 -22
-20 7 c-11 4 -50 16 -87 25 l-68 17 21 23 c23 24 45 22 89 -9z m543 5 c18 -25
18 -25 -6 -25 -13 0 -50 -9 -83 -19 -32 -11 -61 -18 -63 -15 -5 5 -8 2 52 48
57 42 76 44 100 11z m-453 -88 c0 -8 -6 -14 -14 -14 -8 0 -12 6 -9 14 3 7 9
13 14 13 5 0 9 -6 9 -13z m305 3 c3 -6 -1 -7 -9 -4 -18 7 -21 14 -7 14 6 0 13
-4 16 -10z"/>
<path d="M3286 5152 c-3 -5 1 -9 9 -9 8 0 12 4 9 9 -3 4 -7 8 -9 8 -2 0 -6 -4
-9 -8z"/>
<path d="M2529 4913 c-13 -3 -18 -23 -24 -94 -3 -50 -4 -93 -1 -96 11 -11 36
7 36 27 0 24 45 29 54 5 4 -13 46 -23 46 -11 0 6 -82 161 -88 167 -4 3 -14 4
-23 2z m41 -105 c0 -4 -7 -8 -15 -8 -10 0 -15 10 -15 28 1 26 1 26 15 8 8 -11
15 -23 15 -28z"/>
<path d="M2324 4828 c-44 -93 83 -201 129 -110 8 15 12 33 10 40 -7 19 -30 14
-36 -8 -13 -48 -59 -30 -74 28 -8 33 20 61 41 43 9 -7 23 -10 32 -7 28 11 -12
46 -53 46 -28 0 -36 -5 -49 -32z"/>
<path d="M2223 4802 c-8 -5 0 -31 28 -90 41 -83 45 -88 66 -74 10 6 3 29 -27
90 -41 83 -45 88 -67 74z"/>
<path d="M2094 4727 c-4 -11 15 -49 75 -147 7 -13 15 -12 55 10 48 26 50 28
40 54 -5 14 -9 13 -34 -4 -15 -11 -30 -20 -33 -20 -3 0 -22 27 -42 60 -37 60
-51 71 -61 47z"/>
<path d="M1990 4653 c-25 -14 -47 -27 -49 -29 -2 -2 81 -124 105 -153 2 -2 21
11 44 29 49 39 55 78 15 104 -14 9 -25 22 -25 30 0 12 -30 46 -41 46 -2 0 -24
-12 -49 -27z m56 -25 c11 -17 -26 -40 -43 -27 -11 10 -10 14 4 25 22 17 30 17
39 2z m44 -67 c0 -23 -28 -35 -46 -20 -12 10 -11 14 3 25 26 19 43 17 43 -5z"/>
<path d="M1894 4587 c-3 -8 11 -38 31 -67 37 -55 40 -73 13 -78 -9 -2 -30 19
-52 53 -38 56 -52 66 -62 40 -8 -20 66 -124 94 -132 27 -6 75 24 80 51 5 22
-69 146 -86 146 -7 0 -15 -6 -18 -13z"/>
<path d="M1722 4479 c-30 -20 -32 -23 -19 -43 8 -11 29 -47 47 -78 33 -61 39
-65 57 -47 9 9 8 18 -4 36 -15 22 -14 25 11 48 31 29 32 44 5 79 -25 31 -53
33 -97 5z m76 -42 c4 -20 -25 -34 -40 -19 -15 15 -1 44 19 40 10 -2 19 -11 21
-21z"/>
<path d="M1612 4422 c-29 -15 -51 -29 -49 -32 2 -3 20 -40 40 -83 21 -43 41
-77 45 -75 4 2 28 14 55 26 26 12 47 26 47 32 0 19 -30 22 -55 6 -14 -9 -30
-14 -35 -11 -19 12 -10 33 20 45 32 13 34 18 21 38 -7 12 -14 11 -39 -2 -26
-14 -31 -14 -42 -1 -10 13 -6 18 24 30 33 14 47 37 29 48 -5 3 -32 -7 -61 -21z"/>
<path d="M1458 4373 c-33 -5 -33 -11 -10 -113 16 -64 21 -75 38 -72 26 5 26 6
13 36 -14 29 -12 33 15 38 15 2 22 -5 29 -29 10 -32 30 -43 42 -24 3 5 -1 28
-9 52 -8 23 -12 48 -9 55 3 8 -2 25 -11 39 -17 25 -32 28 -98 18z m72 -47 c0
-20 -40 -32 -51 -15 -11 19 -2 29 27 29 14 0 24 -6 24 -14z"/>
<path d="M3362 4929 c-49 -18 -64 -118 -25 -161 30 -33 103 -12 103 30 0 20
-21 24 -34 7 -20 -28 -51 -15 -54 23 -2 18 2 40 9 48 15 18 45 18 53 -1 8 -21
36 -19 36 3 0 36 -50 65 -88 51z"/>
<path d="M3506 4881 c-47 -52 -38 -136 17 -155 76 -27 141 99 81 158 -21 22
-77 20 -98 -3z m76 -36 c21 -48 -26 -106 -59 -72 -25 25 3 92 40 96 4 1 13
-10 19 -24z"/>
<path d="M3690 4830 c-27 -27 -25 -46 10 -81 16 -16 27 -36 24 -44 -8 -19 -34
-7 -45 21 -11 31 -39 32 -39 2 1 -65 92 -89 119 -32 13 29 2 58 -29 74 -11 6
-20 17 -20 25 0 24 30 17 42 -10 14 -32 38 -32 38 -1 0 25 -41 66 -66 66 -8 0
-23 -9 -34 -20z"/>
<path d="M3841 4776 c-10 -12 -8 -17 8 -26 12 -6 21 -14 21 -18 0 -4 -16 -31
-35 -61 -40 -61 -42 -71 -16 -71 14 0 30 19 52 60 31 56 35 59 54 46 19 -12
23 -12 33 4 10 16 5 22 -43 49 -64 36 -59 35 -74 17z"/>
<path d="M3985 4701 c-3 -5 -2 -12 3 -15 5 -3 9 1 9 9 0 17 -3 19 -12 6z"/>
<path d="M3962 4612 c-66 -50 -72 -57 -57 -68 13 -10 22 -10 35 -2 25 16 52
-6 44 -37 -4 -15 0 -24 12 -29 9 -4 18 -5 18 -4 15 25 57 172 52 183 -9 24
-27 17 -104 -43z m57 -26 c-9 -20 -15 -23 -25 -15 -11 9 -9 15 9 29 27 23 31
20 16 -14z"/>
<path d="M4183 4548 c-32 -41 -83 -139 -78 -148 11 -18 31 -11 43 15 13 27 19
30 42 15 13 -8 13 -13 -2 -38 -16 -27 -16 -31 -3 -42 13 -11 18 -10 30 6 8 10
17 28 21 39 4 11 17 33 30 48 33 39 30 52 -18 87 -46 34 -52 35 -65 18z m51
-53 c10 -7 15 -18 11 -24 -14 -24 -59 -4 -49 22 7 20 13 21 38 2z"/>
<path d="M4278 4403 c-43 -77 -45 -84 -28 -93 16 -8 24 1 62 68 23 42 44 79
46 82 1 3 -6 10 -15 16 -16 10 -24 0 -65 -73z"/>
<path d="M4381 4405 c-57 -48 -60 -134 -6 -155 28 -11 70 3 79 27 8 19 -18 27
-44 13 -18 -10 -24 -9 -31 1 -13 21 -11 38 8 70 21 34 42 34 60 -1 18 -35 39
-32 35 5 -6 59 -55 78 -101 40z"/>
<path d="M4523 4291 c-17 -49 -29 -92 -26 -95 13 -12 32 -5 38 14 4 12 15 20
30 20 14 0 25 -7 28 -20 3 -12 14 -20 27 -20 18 0 20 4 14 23 -4 12 -14 54
-23 92 -13 55 -21 71 -36 73 -17 2 -25 -12 -52 -87z m57 -1 c0 -20 -5 -30 -15
-30 -18 0 -18 1 -5 34 13 34 20 33 20 -4z"/>
<path d="M3088 4817 c-54 -12 -56 -17 -33 -93 8 -27 15 -60 15 -73 0 -22 2
-23 46 -16 62 9 74 14 74 32 0 11 -10 14 -42 11 -33 -2 -43 1 -46 13 -2 12 7
18 33 23 27 5 35 12 33 24 -3 12 -14 17 -42 17 -54 0 -58 21 -6 30 30 5 40 11
38 23 -4 20 -13 21 -70 9z"/>
<path d="M2885 4768 c-4 -29 -7 -69 -8 -88 -2 -35 -2 -35 44 -38 41 -3 50 1
68 24 14 18 21 41 21 70 0 57 -25 84 -79 84 l-40 0 -6 -52z m85 -36 c0 -42
-14 -62 -42 -62 -16 0 -18 6 -13 38 13 82 14 83 35 72 15 -8 20 -21 20 -48z"/>
<path d="M3245 4591 c-3 -5 0 -13 6 -17 7 -4 9 -3 5 4 -3 5 0 13 6 15 9 4 10
6 1 6 -6 1 -14 -3 -18 -8z"/>
<path d="M2226 4457 c3 -10 9 -15 12 -12 3 3 0 11 -7 18 -10 9 -11 8 -5 -6z"/>
<path d="M2997 4380 l-17 -60 -70 0 c-39 0 -70 -3 -70 -7 0 -5 17 -18 38 -31
79 -49 76 -42 53 -113 -12 -34 -19 -64 -17 -67 3 -2 26 12 52 32 26 20 52 36
58 36 6 0 35 -18 64 -40 28 -22 52 -36 52 -32 0 4 -9 34 -20 66 -11 33 -20 62
-20 65 0 3 25 22 55 41 30 19 54 38 55 43 0 4 -31 7 -69 7 l-68 0 -17 48 c-10
26 -19 53 -22 60 -8 26 -21 9 -37 -48z m106 -82 l52 -3 -37 -23 c-40 -25 -46
-44 -26 -87 17 -37 2 -43 -30 -12 -16 15 -32 27 -36 27 -4 0 -24 -12 -44 -27
-25 -20 -34 -23 -30 -11 4 9 10 32 13 50 5 30 2 35 -32 58 l-38 25 51 3 52 3
12 47 12 47 14 -47 14 -47 53 -3z"/>
<path d="M2535 4358 c-11 -85 -11 -86 -68 -93 -85 -12 -88 -19 -19 -54 l62
-31 -6 -43 c-4 -23 -10 -52 -15 -63 -15 -42 5 -34 52 18 l47 53 62 -34 c34
-18 63 -31 65 -29 3 2 -10 32 -28 66 l-32 62 49 46 c26 25 46 48 43 50 -3 3
-31 1 -63 -5 -32 -6 -61 -11 -66 -11 -4 0 -21 27 -38 60 -17 33 -32 60 -34 60
-2 0 -7 -24 -11 -52z m57 -67 c15 -28 19 -29 50 -21 57 17 63 11 24 -24 l-37
-35 20 -40 c27 -53 27 -54 -11 -31 -44 27 -53 25 -89 -12 l-30 -32 6 49 7 50
-44 21 -43 22 47 7 c49 7 57 18 58 80 1 26 2 28 13 13 7 -9 20 -30 29 -47z"/>
<path d="M3465 4349 l-29 -60 -41 6 c-22 3 -52 8 -67 11 -16 3 -28 3 -28 -1 0
-4 21 -26 48 -50 l47 -43 -32 -66 c-18 -36 -30 -66 -26 -66 3 0 31 14 61 31
l55 31 54 -54 55 -53 -5 35 c-3 19 -8 53 -11 75 l-6 40 61 29 c44 20 57 31 48
37 -8 5 -23 9 -34 9 -11 0 -36 5 -56 10 -36 10 -37 11 -44 75 -3 36 -10 65
-14 65 -4 0 -20 -27 -36 -61z m35 -49 c0 -38 1 -40 43 -50 23 -6 46 -12 51
-13 5 -2 -11 -11 -34 -22 l-42 -19 6 -50 5 -50 -37 36 -37 36 -35 -23 c-50
-34 -55 -31 -26 18 l25 44 -36 37 -37 38 40 -7 c21 -4 43 -8 48 -9 6 0 19 16
30 36 12 21 24 38 29 38 4 0 7 -18 7 -40z"/>
<path d="M2080 4225 l0 -70 -49 -18 c-27 -9 -56 -17 -65 -17 -37 0 -12 -19 49
-36 l65 -19 0 -67 c0 -38 4 -68 9 -68 4 0 24 24 44 54 l36 54 52 -19 c79 -30
87 -23 40 40 l-40 53 40 55 c23 30 39 56 37 58 -4 5 -82 -21 -109 -36 -15 -7
-23 -2 -46 27 -69 88 -62 87 -63 9z m122 -51 c50 21 52 21 31 -14 -9 -16 -21
-30 -25 -30 -16 0 -7 -29 17 -58 14 -17 25 -32 25 -35 0 -4 -19 1 -42 9 -47
16 -44 18 -91 -47 l-17 -24 4 42 c6 50 -8 69 -60 79 -41 7 -37 15 14 29 36 10
37 12 40 60 l3 49 32 -37 32 -38 37 15z"/>
<path d="M3922 4238 l-43 -56 -62 24 c-34 13 -65 23 -69 22 -4 -2 11 -26 32
-55 22 -28 40 -56 40 -62 0 -5 -18 -32 -40 -60 -46 -58 -40 -62 47 -32 l53 18
37 -58 c41 -62 56 -73 53 -36 -1 12 -2 45 -1 72 l1 50 65 19 c36 10 63 22 60
25 -2 4 -31 16 -64 26 l-60 18 -3 71 -3 71 -43 -57z m25 -41 c-7 -53 -1 -63
46 -72 36 -7 52 -25 22 -25 -9 0 -29 -7 -45 -15 -26 -13 -30 -21 -30 -57 l0
-41 -22 29 c-12 16 -24 32 -28 37 -3 4 -25 1 -48 -7 -23 -8 -42 -12 -42 -9 0
3 12 21 26 40 l26 34 -27 35 c-15 19 -25 37 -23 40 3 2 21 -3 41 -11 20 -8 39
-15 42 -15 2 0 17 18 31 40 15 22 29 40 32 40 2 0 2 -19 -1 -43z"/>
<path d="M2776 4268 c3 -5 10 -6 15 -3 13 9 11 12 -6 12 -8 0 -12 -4 -9 -9z"/>
<path d="M2293 4095 c0 -8 4 -12 9 -9 5 3 6 10 3 15 -9 13 -12 11 -12 -6z"/>
<path d="M1644 4073 c3 -16 8 -46 11 -68 l5 -40 -62 -35 -63 -34 40 -8 c22 -4
54 -7 71 -7 31 -1 32 -2 46 -73 l14 -73 33 64 33 64 44 -7 c24 -3 56 -9 71
-12 26 -6 23 -2 -25 48 l-53 55 30 59 c17 32 31 61 31 65 0 4 -29 -8 -64 -27
l-63 -34 -44 45 c-51 52 -63 56 -55 18z m137 -66 c44 24 49 15 20 -34 l-20
-32 39 -35 38 -34 -53 5 -53 6 -13 -37 c-15 -43 -29 -47 -29 -8 0 42 -13 54
-64 59 -25 3 -46 8 -46 12 0 3 19 14 42 23 l41 18 -6 52 -6 51 35 -34 35 -34
40 22z"/>
<path d="M1730 4086 c0 -2 8 -10 18 -17 15 -13 16 -12 3 4 -13 16 -21 21 -21
13z"/>
<path d="M4230 3796 c0 -2 8 -10 18 -17 15 -13 16 -12 3 4 -13 16 -21 21 -21
13z"/>
<path d="M4165 3749 c-3 -4 2 -6 10 -5 21 3 28 13 10 13 -9 0 -18 -4 -20 -8z"/>
<path d="M2036 3733 c-6 -14 -5 -15 5 -6 7 7 10 15 7 18 -3 3 -9 -2 -12 -12z"/>
<path d="M5136 4272 c-3 -5 1 -9 9 -9 8 0 12 4 9 9 -3 4 -7 8 -9 8 -2 0 -6 -4
-9 -8z"/>
<path d="M1205 4171 c-3 -5 -2 -12 3 -15 5 -3 9 1 9 9 0 17 -3 19 -12 6z"/>
<path d="M1179 3913 c-13 -16 -12 -17 4 -4 9 7 17 15 17 17 0 8 -8 3 -21 -13z"/>
<path d="M4896 3913 c-6 -14 -5 -15 5 -6 7 7 10 15 7 18 -3 3 -9 -2 -12 -12z"/>
<path d="M374 3158 l-19 -23 23 19 c21 18 27 26 19 26 -2 0 -12 -10 -23 -22z"/>
<path d="M346 2002 c-3 -5 1 -9 9 -9 8 0 12 4 9 9 -3 4 -7 8 -9 8 -2 0 -6 -4
-9 -8z"/>
<path d="M3896 403 c-6 -14 -5 -15 5 -6 7 7 10 15 7 18 -3 3 -9 -2 -12 -12z"/>
<path d="M3620 3841 c0 -6 4 -13 10 -16 6 -3 7 1 4 9 -7 18 -14 21 -14 7z"/>
<path d="M2096 3062 c-3 -5 1 -9 9 -9 8 0 12 4 9 9 -3 4 -7 8 -9 8 -2 0 -6 -4
-9 -8z"/>
<path d="M1750 2666 c0 -2 7 -7 16 -10 8 -3 12 -2 9 4 -6 10 -25 14 -25 6z"/>
<path d="M1617 2559 c7 -7 15 -10 18 -7 3 3 -2 9 -12 12 -14 6 -15 5 -6 -5z"/>
<path d="M2577 2919 c4 -13 8 -18 11 -10 2 7 -1 18 -6 23 -8 8 -9 4 -5 -13z"/>
<path d="M2553 2915 c0 -8 4 -12 9 -9 5 3 6 10 3 15 -9 13 -12 11 -12 -6z"/>
<path d="M4000 2756 c0 -2 8 -10 18 -17 15 -13 16 -12 3 4 -13 16 -21 21 -21
13z"/>
<path d="M3540 2676 c0 -2 7 -7 16 -10 8 -3 12 -2 9 4 -6 10 -25 14 -25 6z"/>
<path d="M4296 2467 c3 -10 9 -15 12 -12 3 3 0 11 -7 18 -10 9 -11 8 -5 -6z"/>
<path d="M1585 3271 c-3 -5 -2 -12 3 -15 5 -3 9 1 9 9 0 17 -3 19 -12 6z"/>
<path d="M2916 2872 c-3 -5 1 -9 9 -9 8 0 12 4 9 9 -3 4 -7 8 -9 8 -2 0 -6 -4
-9 -8z"/>
<path d="M4597 2793 c-2 -5 -7 -25 -11 -45 -6 -32 -4 -37 16 -44 13 -3 26 -11
30 -17 4 -7 11 -7 21 1 17 15 37 -4 52 -52 13 -41 39 -41 43 0 3 30 -47 141
-71 156 -16 10 -75 10 -80 1z m111 -86 c35 -67 37 -77 22 -77 -5 0 -10 8 -10
19 0 29 -39 72 -63 70 -51 -4 -58 0 -51 29 10 40 12 42 42 31 20 -7 37 -27 60
-72z"/>
<path d="M582 2924 c-72 -50 -30 -165 60 -164 48 1 94 61 83 110 -13 60 -92
90 -143 54z m94 -12 c15 -10 34 -47 34 -67 0 -9 -11 -27 -25 -40 -63 -63 -160
18 -105 88 21 27 70 37 96 19z"/>
<path d="M769 2914 c-17 -18 -24 -37 -24 -66 0 -98 143 -118 175 -24 29 89
-86 159 -151 90z m115 -10 c38 -37 27 -96 -20 -114 -38 -15 -53 -12 -79 15
-30 30 -31 54 -4 89 24 30 78 36 103 10z"/>
<path d="M973 2916 c-37 -32 -39 -99 -4 -127 56 -46 130 -28 151 35 29 88 -75
153 -147 92z m112 -16 c41 -45 9 -120 -52 -120 -27 0 -73 41 -73 65 0 20 19
57 34 67 22 15 73 8 91 -12z"/>
<path d="M1010 2875 c0 -5 5 -17 10 -25 5 -8 10 -10 10 -5 0 6 -5 17 -10 25
-5 8 -10 11 -10 5z"/>
<path d="M695 2735 c-37 -36 -34 -88 6 -126 23 -21 27 -29 15 -29 -9 0 -28
-11 -41 -25 -33 -32 -33 -84 -1 -121 19 -23 31 -28 67 -27 86 2 121 95 58 154
-28 26 -29 29 -11 29 29 0 62 46 62 87 0 76 -100 114 -155 58z m118 -17 c9
-11 17 -31 17 -45 0 -29 -41 -73 -68 -73 -30 0 -72 38 -72 66 0 74 76 106 123
52z m-18 -181 c23 -33 19 -73 -11 -96 -15 -12 -34 -21 -44 -21 -30 0 -70 39
-70 69 0 71 86 104 125 48z"/>
<path d="M747 2479 c7 -7 15 -10 18 -7 3 3 -2 9 -12 12 -14 6 -15 5 -6 -5z"/>
<path d="M895 2735 c-42 -41 -31 -110 23 -139 26 -15 26 -15 4 -16 -53 -1 -90
-78 -62 -131 27 -50 114 -57 150 -11 34 43 22 115 -23 131 -21 8 -20 9 10 25
38 19 53 43 53 86 0 72 -103 108 -155 55z m118 -17 c24 -29 21 -65 -9 -94 -19
-20 -31 -24 -52 -19 -40 10 -62 34 -62 70 0 67 78 94 123 43z m-19 -180 c24
-34 20 -73 -10 -97 -15 -12 -34 -21 -44 -21 -10 0 -29 9 -44 21 -30 24 -34 63
-10 97 21 31 87 31 108 0z"/>
<path d="M956 2478 c3 -5 10 -6 15 -3 13 9 11 12 -6 12 -8 0 -12 -4 -9 -9z"/>
<path d="M542 2380 c-49 -21 -59 -115 -15 -147 25 -19 87 -16 114 6 31 25 33
92 4 121 -24 24 -72 33 -103 20z m91 -42 c9 -11 17 -29 17 -40 0 -25 -44 -68
-70 -68 -21 0 -70 41 -70 59 0 26 22 62 42 71 30 11 59 3 81 -22z"/>
<path d="M730 2377 c-36 -18 -55 -79 -35 -116 16 -33 33 -41 81 -41 47 0 74
29 74 79 0 22 -7 48 -17 60 -23 27 -71 35 -103 18z m65 -17 c66 -25 41 -130
-31 -130 -22 0 -64 46 -64 70 0 21 41 70 59 70 5 0 21 -4 36 -10z"/>
<path d="M924 2380 c-30 -12 -54 -49 -54 -83 0 -31 39 -77 66 -77 13 0 10 -5
-10 -21 -34 -26 -37 -96 -6 -124 37 -34 120 -12 135 35 4 11 1 36 -5 56 -9 27
-19 36 -42 41 l-30 6 31 24 c24 19 31 32 31 58 0 47 -8 64 -41 80 -31 17 -44
18 -75 5z m84 -37 c30 -40 -3 -113 -50 -113 -27 0 -68 45 -68 74 0 55 84 83
118 39z m12 -163 c37 -37 19 -87 -36 -104 -28 -9 -74 28 -74 60 0 31 33 64 65
64 14 0 34 -9 45 -20z"/>
<path d="M738 2180 c-25 -26 -29 -36 -24 -62 9 -47 33 -68 78 -68 44 0 88 35
88 69 0 50 -41 91 -91 91 -11 0 -34 -14 -51 -30z m102 -10 c41 -41 13 -100
-46 -100 -41 0 -68 34 -58 74 11 47 69 61 104 26z"/>
<path d="M820 2037 c-14 -7 -31 -26 -39 -42 -14 -29 -14 -29 -24 -8 -23 51
-104 47 -132 -6 -18 -36 1 -91 38 -109 24 -12 33 -11 65 5 27 13 38 25 40 44
l3 26 30 -29 c24 -24 35 -29 56 -23 26 6 27 6 10 -13 -25 -28 -21 -67 9 -91
15 -12 34 -21 43 -21 10 0 12 -3 5 -8 -30 -20 -13 -85 26 -97 23 -7 67 17 77
41 10 27 -7 61 -37 74 -22 9 -28 16 -21 23 31 31 -4 97 -51 97 l-31 0 21 23
c30 32 28 63 -7 98 -33 32 -44 35 -81 16z m55 -19 c33 -15 42 -51 21 -83 -20
-31 -58 -33 -86 -5 -26 26 -25 46 5 75 28 29 26 29 60 13z m-125 -73 c0 -24
-7 -39 -22 -49 -31 -22 -51 -20 -78 9 -20 21 -22 30 -14 52 14 40 50 56 86 37
22 -12 28 -21 28 -49z m198 -77 c32 -32 -4 -87 -48 -73 -25 8 -37 50 -20 70
15 18 51 20 68 3z m43 -108 c28 -16 25 -58 -6 -72 -19 -8 -28 -8 -40 2 -18 15
-20 51 -3 68 15 15 24 15 49 2z"/>
<path d="M971 2031 c-25 -25 -27 -49 -5 -79 23 -34 83 -27 104 11 13 24 13 30
0 55 -20 36 -70 42 -99 13z m87 -35 c4 -19 -24 -56 -41 -56 -18 0 -47 32 -47
51 0 10 10 25 22 33 19 13 25 14 43 2 11 -7 22 -21 23 -30z"/>
<path d="M1018 1909 c-34 -19 -20 -89 18 -89 21 0 23 -2 13 -18 -16 -25 -4
-69 21 -77 49 -16 89 25 68 69 -6 14 -17 26 -24 26 -9 0 -11 10 -7 35 3 21 1
41 -7 50 -14 17 -57 19 -82 4z m72 -38 c0 -26 -25 -44 -50 -36 -25 8 -27 50
-3 64 23 12 53 -4 53 -28z m25 -77 c18 -18 16 -33 -7 -47 -35 -22 -66 21 -36
51 16 16 23 15 43 -4z"/>
<path d="M1133 1717 c-48 -21 -36 -87 16 -87 36 0 55 22 47 55 -8 32 -34 45
-63 32z m41 -30 c16 -25 -16 -56 -38 -37 -19 15 -20 32 -4 48 15 15 28 11 42
-11z"/>
<path d="M1023 1669 c-12 -4 -27 -18 -33 -30 -16 -30 16 -74 54 -74 17 1 22
-3 16 -9 -18 -18 -11 -55 15 -72 30 -20 62 -11 77 22 10 20 8 28 -12 49 -15
16 -30 23 -42 19 -16 -5 -17 -3 -7 20 23 50 -18 94 -68 75z m38 -19 c38 -21
12 -79 -30 -65 -27 8 -34 35 -15 56 20 22 20 22 45 9z m70 -106 c17 -21 0 -49
-32 -49 -27 0 -37 28 -19 50 16 19 34 19 51 -1z"/>
<path d="M1173 1615 c-39 -27 -24 -75 23 -75 32 0 49 26 38 58 -11 32 -31 38
-61 17z m45 -33 c3 -18 -1 -22 -22 -22 -19 0 -26 5 -26 18 0 39 43 43 48 4z"/>
<path d="M1220 1511 c-13 -25 19 -67 43 -58 28 10 39 43 21 61 -21 22 -51 20
-64 -3z m50 -21 c0 -21 -24 -28 -35 -10 -8 14 3 30 21 30 8 0 14 -9 14 -20z"/>
<path d="M1138 1455 c-9 -21 -8 -28 7 -45 23 -25 47 -25 70 0 17 18 17 21 1
45 -22 34 -62 34 -78 0z m67 -14 c0 -8 -8 -19 -17 -25 -22 -13 -44 5 -34 29 7
20 51 16 51 -4z"/>
<path d="M1282 1448 c-17 -17 -15 -32 8 -53 20 -18 21 -18 41 2 17 17 19 24
10 42 -13 23 -40 28 -59 9z m46 -25 c-2 -10 -10 -18 -18 -18 -8 0 -16 8 -18
18 -2 12 3 17 18 17 15 0 20 -5 18 -17z"/>
<path d="M1065 1406 c-31 -31 -31 -41 0 -71 29 -30 35 -31 63 -5 27 25 28 52
5 72 -34 29 -43 29 -68 4z m58 -18 c15 -23 1 -48 -27 -48 -31 0 -41 27 -19 52
18 21 32 20 46 -4z"/>
<path d="M1360 1265 c-7 -8 -10 -23 -7 -34 3 -13 0 -17 -12 -14 -9 2 -25 -5
-36 -17 -18 -20 -18 -21 3 -43 18 -17 26 -19 40 -11 9 6 19 22 22 35 3 13 11
24 19 24 23 0 38 32 25 53 -15 23 -38 26 -54 7z m45 -25 c0 -8 -8 -16 -17 -18
-13 -2 -18 3 -18 18 0 15 5 20 18 18 9 -2 17 -10 17 -18z m-55 -60 c0 -21 -24
-28 -35 -10 -8 14 3 30 21 30 8 0 14 -9 14 -20z"/>
<path d="M4953 2916 c-22 -19 -28 -33 -28 -64 0 -49 25 -79 70 -88 61 -11 104
27 105 93 0 33 -5 46 -26 62 -36 28 -86 27 -121 -3z m111 -15 c26 -29 18 -91
-15 -110 -73 -40 -142 54 -83 113 22 22 77 20 98 -3z"/>
<path d="M5146 2909 c-42 -49 -29 -108 28 -135 64 -31 126 6 126 76 0 56 -34
90 -89 90 -32 0 -44 -6 -65 -31z m116 -6 c27 -24 24 -87 -4 -107 -32 -23 -65
-20 -93 9 -30 29 -32 64 -5 93 25 26 76 29 102 5z"/>
<path d="M5350 2915 c-62 -66 -1 -172 85 -151 66 17 89 103 40 151 -34 35 -93
34 -125 0z m112 -12 c42 -37 9 -123 -47 -123 -32 0 -75 42 -75 73 0 55 80 89
122 50z"/>
<path d="M5025 2735 c-34 -33 -34 -93 -2 -123 13 -12 29 -22 35 -22 17 0 15
-17 -2 -23 -8 -3 -22 -20 -31 -38 -40 -77 56 -156 132 -110 62 39 50 144 -19
158 l-31 6 26 14 c33 17 47 42 47 83 0 73 -102 109 -155 55z m118 -17 c39 -46
7 -112 -54 -110 -81 2 -96 107 -19 135 23 8 53 -2 73 -25z m26 -190 c30 -53
-22 -119 -82 -104 -31 7 -60 56 -50 83 14 40 36 54 77 51 32 -2 44 -9 55 -30z"/>
<path d="M5225 2735 c-45 -44 -19 -145 38 -145 20 0 19 -3 -10 -26 -84 -65 2
-198 96 -149 33 17 56 65 47 100 -8 31 -44 65 -70 65 -19 1 -18 2 5 15 52 28
61 103 19 145 -29 29 -94 27 -125 -5z m125 -28 c30 -54 -20 -114 -83 -96 -37
10 -47 24 -47 65 0 70 95 93 130 31z m0 -157 c44 -24 30 -109 -20 -125 -30
-10 -75 12 -89 41 -15 33 -14 37 10 68 22 28 64 35 99 16z"/>
<path d="M5055 2381 c-26 -11 -40 -29 -48 -59 -8 -32 11 -80 34 -87 27 -9 24
-19 -11 -32 -50 -19 -54 -97 -6 -129 61 -39 130 -6 130 62 0 27 -7 42 -26 59
l-27 23 24 6 c51 13 68 102 27 139 -22 19 -71 28 -97 18z m88 -43 c9 -11 17
-29 17 -40 0 -24 -43 -68 -67 -68 -28 0 -60 26 -67 55 -17 69 69 108 117 53z
m-29 -153 c25 -25 29 -54 12 -80 -34 -52 -116 -29 -116 32 0 50 69 82 104 48z"/>
<path d="M5243 2380 c-56 -23 -68 -111 -20 -145 69 -48 163 17 135 95 -10 29
-52 61 -80 59 -7 0 -23 -4 -35 -9z m90 -42 c21 -25 22 -47 2 -75 -46 -66 -153
-5 -115 67 23 43 79 47 113 8z"/>
<path d="M5409 2361 c-58 -58 -23 -141 60 -141 88 0 113 116 34 158 -35 19
-63 14 -94 -17z m109 -18 c29 -39 8 -97 -38 -108 -36 -9 -80 27 -80 65 0 59
82 89 118 43z"/>
<path d="M5196 2187 c-52 -52 -17 -137 56 -137 40 1 64 17 77 53 19 50 -11 94
-72 104 -29 4 -40 1 -61 -20z m104 -19 c24 -26 25 -46 4 -76 -32 -46 -114 -18
-114 39 0 54 72 78 110 37z"/>
<path d="M5375 2175 c-52 -51 -15 -135 59 -135 67 0 102 92 53 138 -32 30 -81
29 -112 -3z m84 0 c24 -12 40 -39 41 -67 0 -18 -42 -48 -67 -48 -61 0 -85 71
-37 109 32 25 28 25 63 6z"/>
<path d="M4987 2032 c-38 -42 -8 -102 51 -102 33 0 62 29 62 62 0 49 -80 77
-113 40z m83 -21 c15 -29 13 -39 -14 -56 -31 -21 -66 -5 -66 28 0 46 59 66 80
28z"/>
<path d="M5164 2036 c-46 -20 -59 -71 -28 -114 14 -21 14 -22 -9 -22 -44 0
-76 -67 -46 -97 7 -7 3 -12 -15 -17 -14 -3 -32 -19 -41 -36 -15 -28 -14 -31
14 -62 26 -29 32 -32 57 -23 35 13 54 57 36 85 -10 17 -10 20 3 20 23 0 65 45
65 70 0 11 -9 29 -21 41 l-21 21 31 -7 c25 -5 35 -2 56 19 31 31 35 32 35 6 0
-22 53 -60 83 -60 30 0 67 45 67 82 -1 37 -14 59 -48 77 -31 17 -77 -2 -97
-38 l-14 -26 -1 28 c0 20 -9 33 -32 47 -38 23 -34 23 -74 6z m64 -22 c26 -18
29 -60 5 -86 -32 -36 -93 -8 -93 42 0 28 30 60 55 60 6 0 21 -7 33 -16z m181
-51 c23 -50 -37 -100 -84 -69 -30 19 -39 49 -25 76 25 46 87 42 109 -7z m-239
-98 c7 -8 10 -25 6 -39 -13 -51 -86 -40 -86 13 0 15 3 31 7 34 12 13 60 7 73
-8z m-62 -107 c16 -16 15 -53 -3 -68 -19 -16 -45 -10 -61 15 -26 39 31 86 64
53z"/>
<path d="M4950 1905 c-8 -9 -10 -29 -7 -49 4 -28 2 -35 -13 -39 -28 -7 -36
-53 -15 -77 41 -45 111 1 87 55 -10 22 -9 25 8 25 20 0 40 27 40 54 0 40 -74
63 -100 31z m77 -21 c9 -24 -10 -49 -38 -49 -24 0 -36 23 -25 51 7 19 55 18
63 -2z m-47 -89 c27 -33 -17 -74 -48 -43 -16 16 -15 23 4 42 19 20 28 20 44 1z"/>
<path d="M4870 1710 c-27 -27 -22 -61 9 -76 30 -15 45 -10 60 23 13 27 4 45
-30 64 -14 7 -24 4 -39 -11z m60 -30 c0 -16 -31 -39 -45 -34 -18 7 -20 51 -2
57 15 5 47 -10 47 -23z"/>
<path d="M4973 1665 c-28 -19 -34 -49 -16 -75 15 -21 14 -22 -5 -16 -25 8 -62
-24 -62 -54 0 -26 43 -54 70 -45 29 9 47 50 30 70 -11 13 -9 15 13 15 29 0 57
33 57 67 0 15 -10 28 -30 38 -35 18 -31 18 -57 0z m67 -43 c0 -31 -16 -45 -44
-38 -31 8 -36 49 -9 65 22 12 53 -4 53 -27z m-67 -84 c13 -20 -6 -48 -34 -48
-22 0 -35 36 -18 56 15 18 38 15 52 -8z"/>
<path d="M4822 1618 c-7 -7 -12 -21 -12 -33 0 -49 62 -63 82 -19 11 23 10 29
-11 45 -27 22 -42 24 -59 7z m47 -17 c19 -12 6 -41 -18 -41 -26 0 -36 17 -21
35 14 17 20 18 39 6z"/>
<path d="M4759 1509 c-9 -18 -7 -25 10 -43 17 -16 25 -18 39 -10 9 6 19 21 20
34 6 41 -49 56 -69 19z m54 -5 c9 -10 -4 -34 -18 -34 -17 0 -28 17 -20 30 7
11 28 13 38 4z"/>
<path d="M4832 1459 c-19 -30 9 -73 44 -66 20 4 23 1 19 -14 -4 -13 3 -27 21
-44 15 -14 30 -25 34 -25 14 0 50 42 50 60 0 25 -50 64 -64 50 -16 -16 -28
-12 -21 9 13 43 -59 70 -83 30z m62 -8 c10 -16 -5 -41 -24 -41 -19 0 -34 25
-24 41 3 5 14 9 24 9 10 0 21 -4 24 -9z m79 -63 c24 -37 -25 -67 -53 -33 -10
13 -9 19 5 35 20 22 33 22 48 -2z"/>
<path d="M4712 1448 c-17 -17 -15 -32 6 -51 25 -22 29 -22 49 9 16 25 16 27
-2 40 -23 17 -37 18 -53 2z m41 -15 c9 -9 -13 -34 -24 -27 -14 8 -11 34 4 34
8 0 17 -3 20 -7z"/>
<path d="M2217 1909 c7 -7 15 -10 18 -7 3 3 -2 9 -12 12 -14 6 -15 5 -6 -5z"/>
<path d="M1862 1835 c-12 -14 -29 -25 -37 -25 -8 0 -15 -4 -15 -10 0 -16 26
-12 51 9 22 18 25 18 42 3 26 -23 93 -20 119 6 20 20 20 20 54 0 33 -20 35
-20 66 -1 31 18 32 18 76 -4 25 -12 49 -20 54 -16 6 3 -14 17 -43 32 -53 26
-55 26 -85 8 -26 -15 -36 -16 -58 -6 -14 7 -26 16 -26 21 0 4 -7 8 -15 8 -8 0
-15 -4 -15 -10 0 -11 -53 -40 -74 -40 -8 0 -28 11 -44 25 l-29 24 -21 -24z"/>
<path d="M3845 1761 c-3 -5 -2 -12 3 -15 5 -3 9 1 9 9 0 17 -3 19 -12 6z"/>
<path d="M3881 1732 c-6 -11 -24 -25 -41 -32 -16 -7 -30 -16 -30 -21 0 -15 15
-10 53 15 35 24 36 24 53 5 23 -25 74 -25 107 1 24 19 27 20 60 4 32 -15 37
-15 67 -1 30 15 34 15 71 -3 42 -22 69 -26 69 -10 0 6 -7 10 -15 10 -9 0 -34
9 -56 20 -36 19 -42 19 -62 5 -29 -21 -57 -19 -83 6 l-22 20 -25 -25 c-36 -35
-88 -36 -116 0 -19 24 -20 24 -30 6z"/>
<path d="M1416 1682 c-3 -5 1 -9 9 -9 8 0 12 4 9 9 -3 4 -7 8 -9 8 -2 0 -6 -4
-9 -8z"/>
<path d="M2160 1646 c0 -2 8 -10 18 -17 15 -13 16 -12 3 4 -13 16 -21 21 -21
13z"/>
<path d="M4176 1602 c-3 -5 1 -9 9 -9 8 0 12 4 9 9 -3 4 -7 8 -9 8 -2 0 -6 -4
-9 -8z"/>
<path d="M4326 1598 c3 -5 10 -6 15 -3 13 9 11 12 -6 12 -8 0 -12 -4 -9 -9z"/>
<path d="M1976 1545 c-10 -15 -33 -33 -53 -41 -43 -19 -94 -5 -118 32 l-16 25
-20 -25 c-11 -14 -35 -31 -54 -37 -19 -7 -35 -17 -35 -22 0 -13 50 1 82 24
l28 20 26 -20 c41 -32 105 -28 147 9 34 29 34 29 52 10 23 -25 86 -27 125 -4
26 16 29 16 56 -5 34 -25 104 -40 104 -22 0 6 -9 11 -20 11 -23 0 -76 25 -102
47 -15 14 -19 13 -34 -2 -42 -42 -94 -41 -130 2 l-21 24 -17 -26z"/>
<path d="M4203 1541 c-42 -56 -114 -61 -162 -10 l-20 22 -36 -32 c-20 -17 -45
-31 -55 -31 -11 0 -20 -5 -20 -11 0 -16 49 -3 83 22 27 19 30 20 47 4 32 -29
83 -35 129 -14 23 10 44 25 47 33 5 14 10 13 31 -4 31 -24 90 -26 122 -4 21
15 25 15 71 -10 48 -26 100 -35 100 -16 0 6 -11 10 -25 10 -28 0 -79 23 -108
48 -17 15 -19 15 -28 0 -5 -9 -25 -22 -44 -28 -38 -13 -68 -3 -95 32 -15 18
-16 18 -37 -11z"/>
<path d="M4256 1262 c-2 -4 4 -8 14 -8 10 0 16 4 14 8 -3 4 -9 8 -14 8 -5 0
-11 -4 -14 -8z"/>
<path d="M3319 1153 c-24 -33 -62 -53 -100 -53 -29 0 -43 7 -63 31 l-26 31
-21 -26 c-11 -14 -34 -29 -50 -34 -17 -4 -30 -12 -29 -17 2 -17 43 -5 70 20
l25 24 28 -25 c41 -35 106 -34 149 5 l32 29 28 -21 c36 -26 81 -26 118 1 19
15 31 18 36 11 8 -14 84 -48 107 -49 30 0 18 18 -17 24 -19 4 -51 18 -71 32
-37 25 -38 25 -59 6 -42 -38 -83 -35 -124 8 -19 21 -20 21 -33 3z"/>
<path d="M3013 715 c0 -8 4 -12 9 -9 5 3 6 10 3 15 -9 13 -12 11 -12 -6z"/>
<path d="M2493 547 c0 -8 6 -14 14 -14 9 0 10 4 2 14 -6 7 -12 13 -14 13 -1 0
-2 -6 -2 -13z"/>
<path d="M2992 514 c-51 -36 -8 -117 51 -95 47 18 47 78 1 99 -31 15 -25 15
-52 -4z m56 -42 c4 -28 -24 -40 -45 -19 -14 13 -14 19 -3 32 18 22 44 15 48
-13z"/>
<path d="M2982 374 c-75 -53 -23 -168 64 -141 65 20 78 102 22 141 -29 20 -57
20 -86 0z m90 -40 c25 -55 -39 -108 -83 -68 -39 36 -17 94 37 94 27 0 37 -5
46 -26z"/>
<path d="M2822 348 c-21 -21 -14 -66 12 -83 53 -35 114 36 68 78 -22 20 -63
22 -80 5z m56 -17 c21 -13 10 -46 -16 -49 -27 -4 -40 22 -22 43 14 17 20 18
38 6z"/>
<path d="M3144 335 c-33 -50 20 -104 71 -71 44 29 27 96 -25 96 -20 0 -35 -8
-46 -25z m65 -9 c17 -20 3 -46 -25 -46 -18 0 -24 5 -24 23 0 38 26 50 49 23z"/>
<path d="M2987 182 c-22 -24 -21 -55 1 -75 26 -23 58 -21 76 5 21 29 20 51 -2
71 -24 22 -55 21 -75 -1z m67 -27 c3 -8 -2 -21 -10 -30 -19 -19 -19 -19 -38 0
-20 20 -10 45 19 45 13 0 25 -7 29 -15z"/>
<path d="M1566 5312 c-2 -4 4 -8 14 -8 10 0 16 4 14 8 -3 4 -9 8 -14 8 -5 0
-11 -4 -14 -8z"/>
<path d="M1056 3358 c3 -5 10 -6 15 -3 13 9 11 12 -6 12 -8 0 -12 -4 -9 -9z"/>
<path d="M736 1332 c-3 -5 1 -9 9 -9 8 0 12 4 9 9 -3 4 -7 8 -9 8 -2 0 -6 -4
-9 -8z"/>
<path d="M5100 1160 c-9 -6 -10 -10 -3 -10 6 0 15 5 18 10 8 12 4 12 -15 0z"/>
<path d="M4293 583 c0 -9 4 -10 14 -2 7 6 13 12 13 14 0 1 -6 2 -13 2 -8 0
-14 -6 -14 -14z"/>
<path d="M1765 581 c-3 -5 -2 -12 3 -15 5 -3 9 1 9 9 0 17 -3 19 -12 6z"/>
<path d="M4219 513 c-13 -16 -12 -17 4 -4 16 13 21 21 13 21 -2 0 -10 -8 -17
-17z"/>
<path d="M1920 376 c0 -2 8 -10 18 -17 15 -13 16 -12 3 4 -13 16 -21 21 -21
13z"/>
<path d="M2016 278 c3 -5 10 -6 15 -3 13 9 11 12 -6 12 -8 0 -12 -4 -9 -9z"/>
<path d="M2089 203 c-13 -16 -12 -17 4 -4 16 13 21 21 13 21 -2 0 -10 -8 -17
-17z"/>
</g>
</svg>
